<?xml version="1.0" encoding="UTF-8"?>
<svg version="1.1" xmlns="http://www.w3.org/2000/svg" width="576" height="576">
<path d="M0 0 C1.05148224 0.00054382 2.10296448 0.00108765 3.18630981 0.00164795 C20.67811246 0.04309025 37.54541761 0.98755582 54.75 4.375 C55.81541016 4.58398926 56.88082031 4.79297852 57.97851562 5.00830078 C81.77251913 9.86533361 104.97014932 17.64042622 126.75 28.375 C127.59191895 28.78443848 128.43383789 29.19387695 129.30126953 29.61572266 C159.63541072 44.48473178 191.17595061 66.15343713 213.03125 92.34765625 C215.08543452 94.77066027 217.26299612 97.05942862 219.4375 99.375 C253.82055496 137.19636046 275.2251444 186.48358749 285 236.1875 C285.15122314 236.9496582 285.30244629 237.71181641 285.45825195 238.49707031 C288.48108466 254.82139105 289.15737191 271.06088455 289.125 287.625 C289.12418427 289.20222336 289.12418427 289.20222336 289.12335205 290.81130981 C289.08190975 308.30311246 288.13744418 325.17041761 284.75 342.375 C284.54101074 343.44041016 284.33202148 344.50582031 284.11669922 345.60351562 C279.25966639 369.39751913 271.48457378 392.59514932 260.75 414.375 C260.13584229 415.63787842 260.13584229 415.63787842 259.50927734 416.92626953 C244.62048437 447.30077158 222.92430404 478.83433879 196.70703125 500.7265625 C194.50527096 502.58113903 192.41933433 504.53834249 190.3125 506.5 C151.93068979 541.00841652 103.2474472 562.73096059 52.9375 572.625 C52.1753418 572.77622314 51.41318359 572.92744629 50.62792969 573.08325195 C34.30360895 576.10608466 18.06411545 576.78237191 1.5 576.75 C0.44851776 576.74945618 -0.60296448 576.74891235 -1.68630981 576.74835205 C-19.17811246 576.70690975 -36.04541761 575.76244418 -53.25 572.375 C-54.84811523 572.06151611 -54.84811523 572.06151611 -56.47851562 571.74169922 C-80.27251913 566.88466639 -103.47014932 559.10957378 -125.25 548.375 C-126.51287842 547.76084229 -126.51287842 547.76084229 -127.80126953 547.13427734 C-158.13541072 532.26526822 -189.67595061 510.59656287 -211.53125 484.40234375 C-213.58543452 481.97933973 -215.76299612 479.69057138 -217.9375 477.375 C-252.32055496 439.55363954 -273.7251444 390.26641251 -283.5 340.5625 C-283.72683472 339.4192627 -283.72683472 339.4192627 -283.95825195 338.25292969 C-286.98108466 321.92860895 -287.65737191 305.68911545 -287.625 289.125 C-287.62445618 288.07351776 -287.62391235 287.02203552 -287.62335205 285.93869019 C-287.58190975 268.44688754 -286.63744418 251.57958239 -283.25 234.375 C-283.04101074 233.30958984 -282.83202148 232.24417969 -282.61669922 231.14648438 C-277.75966639 207.35248087 -269.98457378 184.15485068 -259.25 162.375 C-258.84056152 161.53308105 -258.43112305 160.69116211 -258.00927734 159.82373047 C-243.14026822 129.48958928 -221.47156287 97.94904939 -195.27734375 76.09375 C-192.85433973 74.03956548 -190.56557138 71.86200388 -188.25 69.6875 C-150.42863954 35.30444504 -101.14141251 13.8998556 -51.4375 4.125 C-50.6753418 3.97377686 -49.91318359 3.82255371 -49.12792969 3.66674805 C-32.80360895 0.64391534 -16.56411545 -0.03237191 0 0 Z " fill="#F0E0E9" transform="translate(287.25,-0.375)"/>
<path d="M0 0 C0.66 0 1.32 0 2 0 C2.02341358 21.2715357 2.04102061 42.54306926 2.05181217 63.81461525 C2.0569572 73.69249529 2.06396557 83.5703673 2.07543945 93.44824219 C2.08544124 102.06293601 2.09186646 110.67762401 2.09408849 119.29232347 C2.0953863 123.84904029 2.09841284 128.40574047 2.10573006 132.96245193 C2.11257717 137.26172551 2.11459949 141.56097578 2.11310768 145.86025429 C2.11338014 147.42823094 2.11533324 148.99620848 2.11920547 150.56418037 C2.16807685 171.39616584 2.16807685 171.39616584 1 179 C0.34 179.66 -0.32 180.32 -1 181 C-1.57147878 183.22681121 -1.57147878 183.22681121 -1.9375 185.75 C-2.71901539 189.96654814 -3.79833711 193.27410896 -6 197 C-6.598125 198.03125 -7.19625 199.0625 -7.8125 200.125 C-10.22891367 203.30085797 -12.54004385 205.04437261 -16 207 C-16.66 207 -17.32 207 -18 207 C-18.268125 207.78375 -18.53625 208.5675 -18.8125 209.375 C-20 212 -20 212 -23 214 C-22.34 214.99 -21.68 215.98 -21 217 C-18.52733235 216.65555119 -18.52733235 216.65555119 -16 216 C-15.67 215.34 -15.34 214.68 -15 214 C-7.95294592 214.25625651 -3.41581846 216.48307257 2 221 C4.61100241 224.91650362 4.24350768 228.18441426 4.17944336 232.72241211 C4.17491653 233.61375351 4.17038971 234.50509491 4.16572571 235.42344666 C4.15476193 237.35997868 4.13925325 239.29648903 4.11976433 241.23295403 C4.08965482 244.29656745 4.07280905 247.35999092 4.05970764 250.42372131 C4.01990823 259.13475837 3.95483305 267.84556632 3.88354492 276.55639648 C3.84086955 281.88309993 3.81274847 287.20972599 3.79324532 292.53656197 C3.78266555 294.56799713 3.76625398 296.59941049 3.74394035 298.63075066 C3.71280231 301.47000203 3.69998304 304.30879769 3.69116211 307.14819336 C3.67723419 307.98936707 3.66330627 308.83054077 3.6489563 309.69720459 C3.65429903 313.05468452 3.74737862 315.53020004 5.35458374 318.51911926 C7.7543601 320.67892689 9.57114833 320.54459184 12.76171875 320.609375 C13.87998047 320.64160156 14.99824219 320.67382812 16.15039062 320.70703125 C17.31763672 320.72121094 18.48488281 320.73539062 19.6875 320.75 C20.86634766 320.77964844 22.04519531 320.80929687 23.25976562 320.83984375 C26.17324632 320.91061656 29.08592336 320.96327725 32 321 C32 321.99 32 322.98 32 324 C-9.91 324 -51.82 324 -95 324 C-95 323.01 -95 322.02 -95 321 C-93.9330188 320.97812622 -93.9330188 320.97812622 -92.84448242 320.95581055 C-89.62493668 320.88138994 -86.40643482 320.78471 -83.1875 320.6875 C-82.06794922 320.66494141 -80.94839844 320.64238281 -79.79492188 320.61914062 C-78.18520508 320.5659668 -78.18520508 320.5659668 -76.54296875 320.51171875 C-75.55321045 320.48553467 -74.56345215 320.45935059 -73.54370117 320.43237305 C-70.9830218 320.18423491 -70.9830218 320.18423491 -69.16137695 318.71020508 C-67.50041993 316.264335 -67.8235774 313.99918417 -67.9921875 311.1328125 C-68 309 -68 309 -67.5065918 306.71531677 C-66.9774949 303.87937336 -66.88660457 301.30518897 -66.90234375 298.42211914 C-66.90564697 297.32650162 -66.9089502 296.23088409 -66.91235352 295.10206604 C-66.92065186 293.92498581 -66.9289502 292.74790558 -66.9375 291.53515625 C-66.94128662 290.31025986 -66.94507324 289.08536346 -66.94897461 287.823349 C-66.9652628 282.59369765 -66.99320427 277.36412515 -67.02050781 272.13452148 C-67.03876798 268.30973686 -67.0507586 264.48496561 -67.0625 260.66015625 C-67.07079834 259.5012941 -67.07909668 258.34243195 -67.08764648 257.14845276 C-67.1486439 236.39287179 -67.1486439 236.39287179 -65 229 C-63.35 228.67 -61.7 228.34 -60 228 C-60 228.66 -60 229.32 -60 230 C-57.60385425 229.85834107 -55.20817103 229.71181159 -52.8125 229.5625 C-52.13896484 229.52318359 -51.46542969 229.48386719 -50.77148438 229.44335938 C-47.10300898 229.21072435 -43.58305794 228.82792989 -40 228 C-40 227.01 -40 226.02 -40 225 C-38.68 225 -37.36 225 -36 225 C-36 224.34 -36 223.68 -36 223 C-37.35404497 222.97236643 -38.70826555 222.95332578 -40.0625 222.9375 C-41.19365234 222.92009766 -41.19365234 222.92009766 -42.34765625 222.90234375 C-45.06982033 222.94702618 -45.06982033 222.94702618 -48 223.4921875 C-53.60777059 224.34308959 -59.27924184 224.18431584 -64.9375 224.1875 C-66.07896484 224.19974609 -67.22042969 224.21199219 -68.39648438 224.22460938 C-74.6298373 224.23541241 -80.03813508 223.85073844 -86 222 C-86 221.34 -86 220.68 -86 220 C-87.98 220 -89.96 220 -92 220 C-92 219.34 -92 218.68 -92 218 C-92.9075 217.938125 -93.815 217.87625 -94.75 217.8125 C-98.78818524 216.80295369 -99.56273093 215.24969209 -102 212 C-104.12946603 211.13034494 -104.12946603 211.13034494 -106 211 C-106 210.01 -106 209.02 -106 208 C-106.66 208 -107.32 208 -108 208 C-109.37562854 206.71034824 -110.70766393 205.37310707 -112 204 C-112.66 203.34 -113.32 202.68 -114 202 C-114.125 199.375 -114.125 199.375 -114 197 C-114.66 197 -115.32 197 -116 197 C-120.86172055 183.63026848 -119.45396646 168.06365089 -114 155 C-112.23039001 151.82134399 -110.38794117 148.75378174 -108 146 C-107.34 146 -106.68 146 -106 146 C-105.67 145.01 -105.34 144.02 -105 143 C-97.93005194 136.44931366 -89.01839953 133.61990498 -79.515625 133.79296875 C-69.63575161 134.60606392 -60.01964003 138.58837072 -53.19921875 145.94140625 C-50 150.25809859 -50 150.25809859 -50 153 C-49.34 153 -48.68 153 -48 153 C-43.47166999 162.24534043 -44.04073296 173.05295194 -46 183 C-47.26953125 185.66015625 -47.26953125 185.66015625 -48.8125 188.0625 C-49.35519531 188.91328125 -49.89789063 189.7640625 -50.45703125 190.640625 C-50.96621094 191.41921875 -51.47539062 192.1978125 -52 193 C-52.66 194.093125 -53.32 195.18625 -54 196.3125 C-59.36634066 203.52352026 -66.40455439 206.66790235 -75 209 C-77.0859375 208.6796875 -77.0859375 208.6796875 -79 208 C-80.66062339 207.71258441 -82.32833662 207.46405446 -84 207.25 C-85.2684375 207.07210937 -85.2684375 207.07210937 -86.5625 206.890625 C-89.5859083 207.02629076 -90.78539127 208.01095327 -93 210 C-90.99673057 213.00490414 -89.58091151 214.1707595 -86.625 216.125 C-85.85414063 216.64320313 -85.08328125 217.16140625 -84.2890625 217.6953125 C-77.15522329 221.76135737 -66.40644372 221.13995006 -58.6328125 219.12890625 C-51.75312102 216.40383365 -45.83335023 212.51042973 -40 208 C-39.1028125 207.33291016 -39.1028125 207.33291016 -38.1875 206.65234375 C-32.31737508 202.08832163 -29.74710167 197.11319964 -28 190 C-27.40554316 187.62689054 -26.74696504 185.33426576 -26 183 C-25.34 182.67 -24.68 182.34 -24 182 C-24.020625 180.9275 -24.04125 179.855 -24.0625 178.75 C-24.01235457 175.74127407 -23.70976384 173.8226762 -23 171 C-22.48845678 164.99234124 -23.34151291 159.35646912 -24.5625 153.48046875 C-25 151 -25 151 -25 147 C-25.99 146.67 -26.98 146.34 -28 146 C-28.12375 145.195625 -28.2475 144.39125 -28.375 143.5625 C-28.58125 142.716875 -28.7875 141.87125 -29 141 C-29.66 140.67 -30.32 140.34 -31 140 C-31.66666667 138.66666667 -32.33333333 137.33333333 -33 136 C-36.96064516 130.52469369 -36.96064516 130.52469369 -42.5 127 C-45.09452861 125.96218855 -46.06738871 124.93261129 -48 123 C-50.59915538 121.80972016 -50.59915538 121.80972016 -53 121 C-53 120.34 -53 119.68 -53 119 C-53.70125 119.103125 -54.4025 119.20625 -55.125 119.3125 C-59.28332204 118.86050847 -61.09479337 116.90520663 -64 114 C-65.33172607 110.49001504 -65.13802088 106.88360952 -65.15771484 103.16772461 C-65.16279556 102.48920944 -65.16787628 101.81069427 -65.17311096 101.11161804 C-65.18378585 99.64277867 -65.19241725 98.17392332 -65.19923019 96.70506096 C-65.21104658 94.3808893 -65.23050373 92.05690116 -65.25234985 89.73280334 C-65.31389257 83.12653681 -65.36809127 76.52029272 -65.40136719 69.91381836 C-65.42228411 65.86957312 -65.45755514 61.82566883 -65.50212479 57.78161812 C-65.51630046 56.24066738 -65.52501077 54.6996564 -65.52817917 53.15864372 C-65.53307525 51.00635796 -65.55619471 48.85498235 -65.58349609 46.70288086 C-65.59158295 45.47806503 -65.5996698 44.25324921 -65.60800171 42.99131775 C-65.75679923 40.02297168 -65.75679923 40.02297168 -67.36131287 38.10809326 C-69.79941404 36.45942987 -71.84275189 36.5623667 -74.76171875 36.48828125 C-76.43911133 36.43510742 -76.43911133 36.43510742 -78.15039062 36.38085938 C-79.31763672 36.35830078 -80.48488281 36.33574219 -81.6875 36.3125 C-82.86634766 36.27833984 -84.04519531 36.24417969 -85.25976562 36.20898438 C-88.17308225 36.12642075 -91.08609466 36.05729678 -94 36 C-94.33 35.01 -94.66 34.02 -95 33 C-93.792229 32.970271 -93.792229 32.970271 -92.56005859 32.93994141 C-89.49945722 32.86065575 -86.43917018 32.773946 -83.37890625 32.68261719 C-81.43244228 32.62665161 -79.48574957 32.57882687 -77.5390625 32.53125 C-68.89920559 32.26676458 -60.52701675 31.40076131 -52 30 C-51.19675293 29.8747998 -50.39350586 29.74959961 -49.56591797 29.62060547 C-41.98549293 28.41321429 -34.85217046 26.95174494 -27.8203125 23.76953125 C-26 23 -26 23 -24 23 C-24 22.34 -24 21.68 -24 21 C-23.12214844 20.59007812 -22.24429688 20.18015625 -21.33984375 19.7578125 C-13.14152083 15.4429057 -6.62074822 9.20571567 -1.33984375 1.65234375 C-0.89769531 1.10707031 -0.45554687 0.56179687 0 0 Z " fill="#D881B3" transform="translate(258,117)"/>
<path d="M0 0 C27.39 0 54.78 0 83 0 C83.495 1.485 83.495 1.485 84 3 C83.09459473 3.01401855 83.09459473 3.01401855 82.17089844 3.02832031 C65.64876271 3.22165429 65.64876271 3.22165429 50 8 C49.37399902 8.28294922 48.74799805 8.56589844 48.10302734 8.85742188 C39.66213135 12.70674254 31.99659529 16.82892175 25 23 C23.83017578 23.97453125 23.83017578 23.97453125 22.63671875 24.96875 C14.64813946 31.6516152 14.64813946 31.6516152 10.375 40.875 C11.15329037 44.76645184 12.82307899 47.59878538 14.90625 50.94921875 C16 53 16 53 16 56 C16.75410156 56.24363281 17.50820313 56.48726563 18.28515625 56.73828125 C21.36339805 58.16888859 22.47645721 59.45520777 24.4375 62.1875 C26.61852706 65.15903032 28.82422072 67.96859971 31.3125 70.6875 C33.87964473 73.60009165 34.79741469 76.30634512 36 80 C36.59554687 80.28617187 37.19109375 80.57234375 37.8046875 80.8671875 C40.67853714 82.35013482 42.03766183 84.25609462 44 86.8125 C44.66 87.66457031 45.32 88.51664062 46 89.39453125 C46.99 90.68423828 46.99 90.68423828 48 92 C49.0828125 93.30517578 49.0828125 93.30517578 50.1875 94.63671875 C52 97 52 97 53 100 C54.65216212 101.68104607 56.32152183 103.34522915 58 105 C59.81781667 107.15642957 61.53239259 109.3883388 63.25 111.625 C64.21782919 112.87180907 65.18659151 114.11789432 66.15625 115.36328125 C66.63449219 115.97768066 67.11273438 116.59208008 67.60546875 117.22509766 C69.61667561 119.7848795 71.68034936 122.29985906 73.75 124.8125 C76.54171894 128.21286397 79.32545852 131.61788668 82.0625 135.0625 C82.63097656 135.77535156 83.19945312 136.48820313 83.78515625 137.22265625 C85 139 85 139 85 141 C85.66 141 86.32 141 87 141 C88.33868274 142.6341977 89.59653746 144.3350427 90.8125 146.0625 C91.52019531 147.0628125 92.22789062 148.063125 92.95703125 149.09375 C93.63121094 150.0528125 94.30539062 151.011875 95 152 C95.9993113 153.35467498 96.99917225 154.70894499 98 156.0625 C100 159 100 159 100 161 C100.56332031 161.20625 101.12664062 161.4125 101.70703125 161.625 C104.81927547 163.49128614 106.59590345 166.11178157 108.6875 169 C118.76310434 183.67033161 118.76310434 183.67033161 133.32421875 192.53515625 C137.67351164 192.81552389 139.44126276 192.46156555 142.875 189.625 C143.57625 188.75875 144.2775 187.8925 145 187 C145.99 186.34 146.98 185.68 148 185 C145.79662659 196.47930346 136.52332979 205.67124766 127.82421875 212.77734375 C126 214 126 214 124 214 C124 215.32 124 216.64 124 218 C122 218.66666667 120 219.33333333 118 220 C117.0925 220.391875 116.185 220.78375 115.25 221.1875 C110.36832529 222.40791868 104.5810949 222.29054745 100 220 C99.67 220.66 99.34 221.32 99 222 C99 221.34 99 220.68 99 220 C95.535 220.99 95.535 220.99 92 222 C91.38125 221.360625 90.7625 220.72125 90.125 220.0625 C88.17402388 217.96116416 88.17402388 217.96116416 86 217 C85.34 217.66 84.68 218.32 84 219 C83.67 218.01 83.34 217.02 83 216 C82.01 215.67 81.02 215.34 80 215 C79.67 214.34 79.34 213.68 79 213 C78.01 213 77.02 213 76 213 C76 211.68 76 210.36 76 209 C73.69 209.33 71.38 209.66 69 210 C67.74335022 207.09399739 67 205.20395416 67 202 C66.071875 201.835 65.14375 201.67 64.1875 201.5 C61 200 61 200 60.00390625 198.12109375 C59.50864461 196.68663129 59.05264288 195.2378943 58.640625 193.77734375 C58.15526643 191.79021918 58.15526643 191.79021918 56 191 C56 190.01 56 189.02 56 188 C55.0409375 187.62875 55.0409375 187.62875 54.0625 187.25 C52 186 52 186 51.25 183.875 C51.1675 183.25625 51.085 182.6375 51 182 C50.34 182.33 49.68 182.66 49 183 C48.71125 182.38125 48.4225 181.7625 48.125 181.125 C47.06279958 178.86674235 47.06279958 178.86674235 45 177 C45.375 174.875 45.375 174.875 46 173 C45.34 173 44.68 173 44 173 C44 172.01 44 171.02 44 170 C43.34 170 42.68 170 42 170 C41.67 169.01 41.34 168.02 41 167 C40.01 167.66 39.02 168.32 38 169 C37.34 168.67 36.68 168.34 36 168 C35.5859375 165.93359375 35.5859375 165.93359375 35.375 163.4375 C35.30023438 162.61121094 35.22546875 161.78492188 35.1484375 160.93359375 C35.09945312 160.29550781 35.05046875 159.65742188 35 159 C34.34 159.33 33.68 159.66 33 160 C32.8453125 158.824375 32.8453125 158.824375 32.6875 157.625 C32.22404978 154.66954819 32.22404978 154.66954819 29 153 C28.3125 150.375 28.3125 150.375 28 148 C27.34 148 26.68 148 26 148 C25.9175 147.21625 25.835 146.4325 25.75 145.625 C25.29090262 142.86943709 25.29090262 142.86943709 23.0625 141.875 C22.381875 141.58625 21.70125 141.2975 21 141 C20.34 140.01 19.68 139.02 19 138 C18.01 137.67 17.02 137.34 16 137 C15.26953125 134.93359375 15.26953125 134.93359375 14.8125 132.4375 C14.65394531 131.61121094 14.49539063 130.78492188 14.33203125 129.93359375 C14.22246094 129.29550781 14.11289062 128.65742188 14 128 C13.34 128 12.68 128 12 128 C12 127.34 12 126.68 12 126 C11.34 126 10.68 126 10 126 C9.67 124.68 9.34 123.36 9 122 C7.02 122.99 7.02 122.99 5 124 C4 121 4 121 3.625 117.4375 C3.315625 115.7359375 3.315625 115.7359375 3 114 C1.515 113.01 1.515 113.01 0 112 C0 111.01 0 110.02 0 109 C-1.32 108.67 -2.64 108.34 -4 108 C-4 106.02 -4 104.04 -4 102 C-4.66 102 -5.32 102 -6 102 C-6.33 100.68 -6.66 99.36 -7 98 C-7.66 98 -8.32 98 -9 98 C-9.66 97.34 -10.32 96.68 -11 96 C-11.66 95.67 -12.32 95.34 -13 95 C-13.33 94.01 -13.66 93.02 -14 92 C-15.11877463 89.4182124 -16.13807287 87.85786617 -18.125 85.8125 C-20.7566042 81.8650937 -20.80001226 78.61862749 -20 74 C-18.4375 71.0625 -18.4375 71.0625 -16 68 C-14.78821759 66.21066429 -13.58011403 64.41883362 -12.375 62.625 C-10.5859375 59.9765625 -10.5859375 59.9765625 -9 58 C-8.34 58 -7.68 58 -7 58 C-7 57.34 -7 56.68 -7 56 C-6.34 56 -5.68 56 -5 56 C-4.77699219 55.31421875 -4.55398438 54.6284375 -4.32421875 53.921875 C-2.64682753 50.22072859 -0.36491618 47.38731813 2.1875 44.25 C3.1824703 43.00665334 4.17726198 41.76316373 5.171875 40.51953125 C5.65591797 39.91834473 6.13996094 39.3171582 6.63867188 38.69775391 C8.98937324 35.7661224 11.28134434 32.78940616 13.57421875 29.8125 C14.75185721 28.31544728 15.99325642 26.8687913 17.25 25.4375 C20.48454853 20.93223597 22 16.81093743 22 11.25 C20.74709486 7.17805829 19.5938413 6.2408099 16 4 C13.22985363 3.40330948 10.51479284 3.30558574 7.6875 3.25 C6.94693359 3.22035156 6.20636719 3.19070312 5.44335938 3.16015625 C3.62947954 3.08994155 1.81473722 3.04264952 0 3 C0 2.01 0 1.02 0 0 Z " fill="#7895D2" transform="translate(284,238)"/>
<path d="M0 0 C4.27880125 1.63203289 7.78266716 3.9461755 10 8 C10.26044583 11.01818443 10.34860663 13.82194799 10.29296875 16.8359375 C10.28858795 17.72742493 10.28420715 18.61891235 10.2796936 19.53741455 C10.26828551 21.4712218 10.24994595 23.40499777 10.22549438 25.33868408 C10.18720949 28.39821638 10.16765955 31.45735869 10.15307617 34.51708984 C10.11295584 42.11519471 10.04030689 49.71292799 9.96887207 57.31079102 C9.90973435 63.73233943 9.86279136 70.15375081 9.83218384 76.57550049 C9.81271664 79.59143658 9.77519486 82.60680906 9.73706055 85.62255859 C9.72616359 87.46972154 9.71610832 89.31688971 9.70703125 91.1640625 C9.68378281 92.42346649 9.68378281 92.42346649 9.6600647 93.70831299 C9.65914776 97.0633606 9.74789241 99.53099673 11.35359192 102.51812744 C13.75406106 104.67870318 15.57006285 104.5445698 18.76171875 104.609375 C19.87998047 104.64160156 20.99824219 104.67382812 22.15039062 104.70703125 C23.90125977 104.72830078 23.90125977 104.72830078 25.6875 104.75 C27.45577148 104.79447266 27.45577148 104.79447266 29.25976562 104.83984375 C32.17324632 104.91061656 35.08592336 104.96327725 38 105 C38 105.99 38 106.98 38 108 C-3.91 108 -45.82 108 -89 108 C-89 107.01 -89 106.02 -89 105 C-88.29391602 104.99589111 -87.58783203 104.99178223 -86.86035156 104.98754883 C-83.65605397 104.95462075 -80.45365979 104.88397754 -77.25 104.8125 C-76.13882813 104.80669922 -75.02765625 104.80089844 -73.8828125 104.79492188 C-67.47429737 104.82924292 -67.47429737 104.82924292 -62.359375 101.44921875 C-61.68648437 100.23685547 -61.68648437 100.23685547 -61 99 C-60.34 99 -59.68 99 -59 99 C-59 73.26 -59 47.52 -59 21 C-58.34 21 -57.68 21 -57 21 C-56.731875 20.38125 -56.46375 19.7625 -56.1875 19.125 C-55 17 -55 17 -52 15 C-49.73654284 14.75256617 -47.46237823 14.59690642 -45.1875 14.5 C-40.36820969 14.2933852 -36.54465541 13.57193102 -32 12 C-30.68 12 -29.36 12 -28 12 C-28 11.34 -28 10.68 -28 10 C-27.3709375 9.76925781 -26.741875 9.53851563 -26.09375 9.30078125 C-20.89696913 7.32068251 -16.23360637 5.12183373 -11.59375 2.05078125 C-7.86810624 -0.40558681 -4.35414282 -0.57374084 0 0 Z " fill="#6993D1" transform="translate(252,333)"/>
<path d="M0 0 C3.33419774 2.65974338 5.28950801 5.20821883 7.39453125 8.91015625 C7.39453125 9.57015625 7.39453125 10.23015625 7.39453125 10.91015625 C8.05453125 10.91015625 8.71453125 10.91015625 9.39453125 10.91015625 C13.92286126 20.15549668 13.35379829 30.96310819 11.39453125 40.91015625 C10.125 43.5703125 10.125 43.5703125 8.58203125 45.97265625 C8.03933594 46.8234375 7.49664062 47.67421875 6.9375 48.55078125 C6.42832031 49.329375 5.91914063 50.10796875 5.39453125 50.91015625 C4.73453125 52.00328125 4.07453125 53.09640625 3.39453125 54.22265625 C-1.97180941 61.43367651 -9.01002314 64.5780586 -17.60546875 66.91015625 C-19.69140625 66.58984375 -19.69140625 66.58984375 -21.60546875 65.91015625 C-23.26609214 65.62274066 -24.93380537 65.37421071 -26.60546875 65.16015625 C-27.87390625 64.98226562 -27.87390625 64.98226562 -29.16796875 64.80078125 C-32.19137705 64.93644701 -33.39086002 65.92110952 -35.60546875 67.91015625 C-33.60219932 70.91506039 -32.18638026 72.08091575 -29.23046875 74.03515625 C-28.45960938 74.55335938 -27.68875 75.0715625 -26.89453125 75.60546875 C-20.47271524 79.2656847 -11.79552628 78.73648141 -4.60546875 77.91015625 C2.00337542 76.07027758 7.91739164 73.01801096 13.39453125 68.91015625 C14.05453125 69.24015625 14.71453125 69.57015625 15.39453125 69.91015625 C14.40453125 71.23015625 13.41453125 72.55015625 12.39453125 73.91015625 C12.72453125 74.57015625 13.05453125 75.23015625 13.39453125 75.91015625 C15.31265625 75.50796875 15.31265625 75.50796875 17.26953125 75.09765625 C17.98882812 74.94683594 18.708125 74.79601562 19.44921875 74.640625 C21.76499674 73.98706787 21.76499674 73.98706787 23.39453125 70.91015625 C25.77734375 69.9609375 25.77734375 69.9609375 28.51953125 69.22265625 C29.42960937 68.97128906 30.3396875 68.71992188 31.27734375 68.4609375 C31.97601563 68.27917969 32.6746875 68.09742188 33.39453125 67.91015625 C33.39453125 67.25015625 33.39453125 66.59015625 33.39453125 65.91015625 C35.03786629 64.87226044 36.70696992 63.87447701 38.39453125 62.91015625 C39.05453125 62.25015625 39.71453125 61.59015625 40.39453125 60.91015625 C41.38453125 60.91015625 42.37453125 60.91015625 43.39453125 60.91015625 C43.58015625 59.95109375 43.58015625 59.95109375 43.76953125 58.97265625 C43.97578125 58.29203125 44.18203125 57.61140625 44.39453125 56.91015625 C45.05453125 56.58015625 45.71453125 56.25015625 46.39453125 55.91015625 C46.72453125 54.92015625 47.05453125 53.93015625 47.39453125 52.91015625 C48.38453125 52.91015625 49.37453125 52.91015625 50.39453125 52.91015625 C50.53890625 52.14703125 50.68328125 51.38390625 50.83203125 50.59765625 C51.39453125 47.91015625 51.39453125 47.91015625 52.39453125 44.91015625 C53.38453125 44.91015625 54.37453125 44.91015625 55.39453125 44.91015625 C53.31354606 52.3712495 50.74294741 58.78845619 44.20703125 63.34765625 C41.39453125 64.91015625 41.39453125 64.91015625 39.39453125 64.91015625 C39.12640625 65.69390625 38.85828125 66.47765625 38.58203125 67.28515625 C37.39453125 69.91015625 37.39453125 69.91015625 34.39453125 71.91015625 C35.38453125 73.39515625 35.38453125 73.39515625 36.39453125 74.91015625 C38.8671989 74.56570744 38.8671989 74.56570744 41.39453125 73.91015625 C41.72453125 73.25015625 42.05453125 72.59015625 42.39453125 71.91015625 C45.03453125 72.24015625 47.67453125 72.57015625 50.39453125 72.91015625 C50.39453125 73.24015625 50.39453125 73.57015625 50.39453125 73.91015625 C48.47640625 74.21953125 48.47640625 74.21953125 46.51953125 74.53515625 C41.61809171 75.6020311 37.92466493 77.74667019 33.75390625 80.47265625 C30.27469958 82.5924378 27.49648312 83.91015625 23.39453125 83.91015625 C23.39453125 84.57015625 23.39453125 85.23015625 23.39453125 85.91015625 C17.5595085 88.04787196 12.30876212 89.06863136 6.08203125 89.28515625 C0.51257449 89.43083035 0.51257449 89.43083035 -3.85546875 92.47265625 C-4.43296875 93.27703125 -5.01046875 94.08140625 -5.60546875 94.91015625 C-6.26546875 94.91015625 -6.92546875 94.91015625 -7.60546875 94.91015625 C-7.60546875 120.65015625 -7.60546875 146.39015625 -7.60546875 172.91015625 C-8.26546875 172.91015625 -8.92546875 172.91015625 -9.60546875 172.91015625 C-10.46668514 168.79545571 -10.42752241 165.98089729 -9.60546875 161.91015625 C-9.52650262 160.05225508 -9.49766089 158.19182624 -9.5078125 156.33227539 C-9.51111572 155.23665787 -9.51441895 154.14104034 -9.51782227 153.01222229 C-9.52612061 151.83514206 -9.53441895 150.65806183 -9.54296875 149.4453125 C-9.54675537 148.22041611 -9.55054199 146.99551971 -9.55444336 145.73350525 C-9.57073155 140.5038539 -9.59867302 135.2742814 -9.62597656 130.04467773 C-9.64423673 126.21989311 -9.65622735 122.39512186 -9.66796875 118.5703125 C-9.67626709 117.41145035 -9.68456543 116.2525882 -9.69311523 115.05860901 C-9.75411265 94.30302804 -9.75411265 94.30302804 -7.60546875 86.91015625 C-5.13046875 86.41515625 -5.13046875 86.41515625 -2.60546875 85.91015625 C-2.60546875 86.57015625 -2.60546875 87.23015625 -2.60546875 87.91015625 C-0.209323 87.76849732 2.18636022 87.62196784 4.58203125 87.47265625 C5.25556641 87.43333984 5.92910156 87.39402344 6.62304688 87.35351562 C10.29152227 87.1208806 13.81147331 86.73808614 17.39453125 85.91015625 C17.39453125 84.92015625 17.39453125 83.93015625 17.39453125 82.91015625 C18.71453125 82.91015625 20.03453125 82.91015625 21.39453125 82.91015625 C21.39453125 82.25015625 21.39453125 81.59015625 21.39453125 80.91015625 C20.04048628 80.88252268 18.6862657 80.86348203 17.33203125 80.84765625 C16.57792969 80.83605469 15.82382813 80.82445312 15.046875 80.8125 C12.32471092 80.85718243 12.32471092 80.85718243 9.39453125 81.40234375 C3.78676066 82.25324584 -1.88471059 82.09447209 -7.54296875 82.09765625 C-8.68443359 82.10990234 -9.82589844 82.12214844 -11.00195312 82.13476562 C-17.23530605 82.14556866 -22.64360383 81.76089469 -28.60546875 79.91015625 C-28.60546875 79.25015625 -28.60546875 78.59015625 -28.60546875 77.91015625 C-30.58546875 77.91015625 -32.56546875 77.91015625 -34.60546875 77.91015625 C-34.60546875 77.25015625 -34.60546875 76.59015625 -34.60546875 75.91015625 C-35.96671875 75.81734375 -35.96671875 75.81734375 -37.35546875 75.72265625 C-41.39365399 74.71310994 -42.16819968 73.15984834 -44.60546875 69.91015625 C-46.73493478 69.04050119 -46.73493478 69.04050119 -48.60546875 68.91015625 C-48.60546875 67.92015625 -48.60546875 66.93015625 -48.60546875 65.91015625 C-49.26546875 65.91015625 -49.92546875 65.91015625 -50.60546875 65.91015625 C-51.98109729 64.62050449 -53.31313268 63.28326332 -54.60546875 61.91015625 C-55.26546875 61.25015625 -55.92546875 60.59015625 -56.60546875 59.91015625 C-56.73046875 57.28515625 -56.73046875 57.28515625 -56.60546875 54.91015625 C-57.26546875 54.91015625 -57.92546875 54.91015625 -58.60546875 54.91015625 C-63.4671893 41.54042473 -62.05943521 25.97380714 -56.60546875 12.91015625 C-54.83585876 9.73150024 -52.99340992 6.66393799 -50.60546875 3.91015625 C-49.94546875 3.91015625 -49.28546875 3.91015625 -48.60546875 3.91015625 C-48.27546875 2.92015625 -47.94546875 1.93015625 -47.60546875 0.91015625 C-33.70113101 -11.97295894 -14.81590953 -9.98325235 0 0 Z " fill="#C09DD3" transform="translate(200.60546875,259.08984375)"/>
<path d="M0 0 C27.39 0 54.78 0 83 0 C83.495 1.485 83.495 1.485 84 3 C83.09459473 3.01401855 83.09459473 3.01401855 82.17089844 3.02832031 C65.64876271 3.22165429 65.64876271 3.22165429 50 8 C49.37399902 8.28294922 48.74799805 8.56589844 48.10302734 8.85742188 C39.66213135 12.70674254 31.99659529 16.82892175 25 23 C23.83017578 23.97453125 23.83017578 23.97453125 22.63671875 24.96875 C14.55301591 31.70084496 14.55301591 31.70084496 10.4375 41.0625 C11.14295305 44.74653261 12.81211882 46.99166338 15 50 C15 50.66 15 51.32 15 52 C14.01 52 13.02 52 12 52 C10.5783681 48.6828589 9.60990891 45.55780196 9 42 C8.34 42 7.68 42 7 42 C7 42.99 7 43.98 7 45 C5.59801691 46.17894033 4.1898996 47.35575407 2.703125 48.42578125 C0.3067266 50.64080087 -1.21316661 53.27255668 -3 56 C-5.27840215 59.00778173 -7.6571399 61.93655685 -10.02148438 64.87695312 C-14.60328946 70.63099444 -17.45193027 74.31718538 -17 82 C-16.01 82.33 -15.02 82.66 -14 83 C-13.375 84.875 -13.375 84.875 -13 87 C-12.67 87.99 -12.34 88.98 -12 90 C-11.01 90 -10.02 90 -9 90 C-8.71125 90.804375 -8.4225 91.60875 -8.125 92.4375 C-7.26737432 95.1326468 -7.26737432 95.1326468 -5 96 C-4.27840576 97.64363134 -3.60648579 99.31050386 -3 101 C-2.01 101 -1.02 101 0 101 C0.103125 101.763125 0.20625 102.52625 0.3125 103.3125 C0.75593985 106.02954673 0.75593985 106.02954673 2.5625 107.5 C4 109 4 109 4.1875 111.6875 C4.0946875 112.8321875 4.0946875 112.8321875 4 114 C2.68 113.34 1.36 112.68 0 112 C0 111.01 0 110.02 0 109 C-1.32 108.67 -2.64 108.34 -4 108 C-4 106.02 -4 104.04 -4 102 C-4.66 102 -5.32 102 -6 102 C-6.33 100.68 -6.66 99.36 -7 98 C-7.66 98 -8.32 98 -9 98 C-9.66 97.34 -10.32 96.68 -11 96 C-11.66 95.67 -12.32 95.34 -13 95 C-13.33 94.01 -13.66 93.02 -14 92 C-15.11877463 89.4182124 -16.13807287 87.85786617 -18.125 85.8125 C-20.7566042 81.8650937 -20.80001226 78.61862749 -20 74 C-18.4375 71.0625 -18.4375 71.0625 -16 68 C-14.78821759 66.21066429 -13.58011403 64.41883362 -12.375 62.625 C-10.5859375 59.9765625 -10.5859375 59.9765625 -9 58 C-8.34 58 -7.68 58 -7 58 C-7 57.34 -7 56.68 -7 56 C-6.34 56 -5.68 56 -5 56 C-4.77699219 55.31421875 -4.55398438 54.6284375 -4.32421875 53.921875 C-2.64682753 50.22072859 -0.36491618 47.38731813 2.1875 44.25 C3.1824703 43.00665334 4.17726198 41.76316373 5.171875 40.51953125 C5.65591797 39.91834473 6.13996094 39.3171582 6.63867188 38.69775391 C8.98937324 35.7661224 11.28134434 32.78940616 13.57421875 29.8125 C14.75185721 28.31544728 15.99325642 26.8687913 17.25 25.4375 C20.48454853 20.93223597 22 16.81093743 22 11.25 C20.74709486 7.17805829 19.5938413 6.2408099 16 4 C13.22985363 3.40330948 10.51479284 3.30558574 7.6875 3.25 C6.94693359 3.22035156 6.20636719 3.19070312 5.44335938 3.16015625 C3.62947954 3.08994155 1.81473722 3.04264952 0 3 C0 2.01 0 1.02 0 0 Z " fill="#D29AC6" transform="translate(284,238)"/>
<path d="M0 0 C0.99 0.66 1.98 1.32 3 2 C2.835 2.639375 2.67 3.27875 2.5 3.9375 C1.77224585 8.39499414 0.92982558 13.85965115 3 18 C2.85174176 21.30615884 2.60016127 24.58642443 2.31640625 27.8828125 C1.99179575 32.14233569 2.27454829 35.76819833 3 40 C2.8453125 40.58861816 2.690625 41.17723633 2.53125 41.78369141 C1.84599081 44.64250707 1.9257163 47.25568066 1.96875 50.1953125 C2.02854272 58.43175943 1.77891908 66.64407922 1.5 74.875 C1.45161485 76.35285779 1.40343675 77.83072237 1.35546875 79.30859375 C1.23935443 82.87247697 1.12047885 86.43626134 1 90 C2.65 90 4.3 90 6 90 C6 91.65 6 93.3 6 95 C6.69150146 94.96447021 7.38300293 94.92894043 8.09545898 94.89233398 C11.20922906 94.73534819 14.32332938 94.58631877 17.4375 94.4375 C18.52611328 94.38142578 19.61472656 94.32535156 20.73632812 94.26757812 C21.77080078 94.21923828 22.80527344 94.17089844 23.87109375 94.12109375 C25.30859985 94.05039673 25.30859985 94.05039673 26.77514648 93.97827148 C29 94 29 94 30 95 C30.38493338 100.67776737 30.00244501 103.99592499 27 109 C25.989375 108.835 24.97875 108.67 23.9375 108.5 C17.3603063 107.66894664 10.61593848 107.71634059 4 108 C3.67 108.33 3.34 108.66 3 109 C1.43827255 109.08685603 -0.12729344 109.10702219 -1.69140625 109.09765625 C-2.63564453 109.09443359 -3.57988281 109.09121094 -4.55273438 109.08789062 C-5.54595703 109.07951172 -6.53917969 109.07113281 -7.5625 109.0625 C-8.55958984 109.05798828 -9.55667969 109.05347656 -10.58398438 109.04882812 C-13.05604849 109.03700007 -15.52799518 109.02051849 -18 109 C-14.66083151 104.13676149 -14.66083151 104.13676149 -11.640625 103.51171875 C-10.85171875 103.56972656 -10.0628125 103.62773437 -9.25 103.6875 C-8.45078125 103.73261719 -7.6515625 103.77773438 -6.828125 103.82421875 C-6.22484375 103.88222656 -5.6215625 103.94023437 -5 104 C-5 103.01 -5 102.02 -5 101 C-5.80179687 101.08378906 -6.60359375 101.16757812 -7.4296875 101.25390625 C-14.19888397 101.8602175 -20.66865385 102.02688754 -27.4375 101.5625 C-34.60993846 101.07661756 -41.74825187 100.88373683 -48.9375 100.875 C-50.33923462 100.86835327 -50.33923462 100.86835327 -51.76928711 100.86157227 C-57.52859566 100.87329787 -63.16155831 101.23333491 -68.88500977 101.88330078 C-69.93192993 101.94106689 -69.93192993 101.94106689 -71 102 C-71.495 101.505 -71.495 101.505 -72 101 C-73.92478813 100.84193469 -75.8549921 100.748865 -77.78515625 100.68359375 C-78.95498047 100.64169922 -80.12480469 100.59980469 -81.33007812 100.55664062 C-82.56177734 100.51732422 -83.79347656 100.47800781 -85.0625 100.4375 C-86.29806641 100.39431641 -87.53363281 100.35113281 -88.80664062 100.30664062 C-91.87097335 100.20015802 -94.93539073 100.09814576 -98 100 C-98 99.67 -98 99.34 -98 99 C-56.09 99 -14.18 99 29 99 C29 98.01 29 97.02 29 96 C28.26362305 96.02618408 27.52724609 96.05236816 26.76855469 96.0793457 C23.42925384 96.18333686 20.09029345 96.2483341 16.75 96.3125 C15.59113281 96.35439453 14.43226563 96.39628906 13.23828125 96.43945312 C12.12324219 96.45556641 11.00820313 96.47167969 9.859375 96.48828125 C8.31975098 96.52755737 8.31975098 96.52755737 6.74902344 96.56762695 C4 96 4 96 1.85656738 94.02209473 C-0.66083992 89.92429392 -0.53553228 86.79525287 -0.45410156 82.07885742 C-0.45468567 81.19055237 -0.45526978 80.30224731 -0.45587158 79.38702393 C-0.45309136 76.45943732 -0.42200226 73.53287685 -0.390625 70.60546875 C-0.38316239 68.57237809 -0.37746955 66.53928024 -0.37347412 64.50617981 C-0.35821942 59.16142839 -0.31893873 53.81711344 -0.2746582 48.47253418 C-0.23370215 43.01625472 -0.21546237 37.55990457 -0.1953125 32.10351562 C-0.15244455 21.40215224 -0.08419496 10.70111245 0 0 Z " fill="#DEDAEF" transform="translate(261,342)"/>
<path d="M0 0 C4.08627439 3.87002994 7.43631528 8.02069763 10.75 12.5625 C11.24371094 13.22185547 11.73742187 13.88121094 12.24609375 14.56054688 C12.71660156 15.20185547 13.18710937 15.84316406 13.671875 16.50390625 C14.30754395 17.36737671 14.30754395 17.36737671 14.95605469 18.24829102 C16.08871639 20.14886345 16.57011511 21.8396212 17 24 C17.66 24 18.32 24 19 24 C20.16992188 25.33837891 20.16992188 25.33837891 21.46875 27.2265625 C21.95214844 27.92144775 22.43554688 28.61633301 22.93359375 29.33227539 C23.45050781 30.08887451 23.96742188 30.84547363 24.5 31.625 C25.59343622 33.19943671 26.68719054 34.77365256 27.78125 36.34765625 C28.32652344 37.13672363 28.87179687 37.92579102 29.43359375 38.73876953 C31.5984451 41.86390251 33.7918142 44.96787888 36 48.0625 C36.40041504 48.62428955 36.80083008 49.1860791 37.21337891 49.76489258 C40.85154645 54.84289773 44.6110489 59.82683671 48.38525391 64.80419922 C51.0689683 68.36152081 53.68413458 71.95181448 56.21875 75.6171875 C56.74742676 76.3805542 57.27610352 77.1439209 57.82080078 77.93041992 C58.82685974 79.39146533 59.82573573 80.85749399 60.81591797 82.3293457 C64.98871746 88.38990975 69.59057273 92.31457932 76 96 C76.928125 96.66 77.85625 97.32 78.8125 98 C88.73897229 104.22837477 100.86125124 105.66254725 112.2890625 103.328125 C114.88651496 102.61667807 117.44797077 101.85920022 120 101 C120 101.99 120 102.98 120 104 C118 104.66666667 116 105.33333333 114 106 C113.0925 106.391875 112.185 106.78375 111.25 107.1875 C106.36832529 108.40791868 100.5810949 108.29054745 96 106 C95.67 106.66 95.34 107.32 95 108 C95 107.34 95 106.68 95 106 C91.535 106.99 91.535 106.99 88 108 C87.38125 107.360625 86.7625 106.72125 86.125 106.0625 C84.17402388 103.96116416 84.17402388 103.96116416 82 103 C81.34 103.66 80.68 104.32 80 105 C79.67 104.01 79.34 103.02 79 102 C77.515 101.505 77.515 101.505 76 101 C75.67 100.34 75.34 99.68 75 99 C74.01 99 73.02 99 72 99 C72 97.68 72 96.36 72 95 C68.535 95.495 68.535 95.495 65 96 C63.74335022 93.09399739 63 91.20395416 63 88 C62.071875 87.835 61.14375 87.67 60.1875 87.5 C57 86 57 86 56.00390625 84.12109375 C55.50864461 82.68663129 55.05264288 81.2378943 54.640625 79.77734375 C54.15526643 77.79021918 54.15526643 77.79021918 52 77 C52 76.01 52 75.02 52 74 C51.0409375 73.62875 51.0409375 73.62875 50.0625 73.25 C48 72 48 72 47.25 69.875 C47.1675 69.25625 47.085 68.6375 47 68 C46.01 68.495 46.01 68.495 45 69 C44.71125 68.38125 44.4225 67.7625 44.125 67.125 C43.06279958 64.86674235 43.06279958 64.86674235 41 63 C41.375 60.875 41.375 60.875 42 59 C41.34 59 40.68 59 40 59 C40 58.01 40 57.02 40 56 C39.34 56 38.68 56 38 56 C37.67 55.01 37.34 54.02 37 53 C36.01 53.66 35.02 54.32 34 55 C33.01 54.505 33.01 54.505 32 54 C31.5859375 51.93359375 31.5859375 51.93359375 31.375 49.4375 C31.30023438 48.61121094 31.22546875 47.78492188 31.1484375 46.93359375 C31.09945313 46.29550781 31.05046875 45.65742188 31 45 C30.01 45.495 30.01 45.495 29 46 C28.896875 45.21625 28.79375 44.4325 28.6875 43.625 C28.22404978 40.66954819 28.22404978 40.66954819 25 39 C24.3125 36.375 24.3125 36.375 24 34 C23.34 34 22.68 34 22 34 C21.9175 33.21625 21.835 32.4325 21.75 31.625 C21.29090262 28.86943709 21.29090262 28.86943709 19.0625 27.875 C18.0415625 27.441875 18.0415625 27.441875 17 27 C16.34 26.01 15.68 25.02 15 24 C14.01 23.67 13.02 23.34 12 23 C11.26953125 20.93359375 11.26953125 20.93359375 10.8125 18.4375 C10.65394531 17.61121094 10.49539063 16.78492188 10.33203125 15.93359375 C10.22246094 15.29550781 10.11289062 14.65742188 10 14 C9.34 14 8.68 14 8 14 C8 13.34 8 12.68 8 12 C7.34 12 6.68 12 6 12 C5.67 10.68 5.34 9.36 5 8 C3.02 8.99 3.02 8.99 1 10 C-0.1577506 6.52674819 -0.06866652 3.63932552 0 0 Z " fill="#B3BAD5" transform="translate(288,352)"/>
<path d="M0 0 C0.99 0.495 0.99 0.495 2 1 C0.35 2.65 -1.3 4.3 -3 6 C-2.01 7.485 -2.01 7.485 -1 9 C1.47266765 8.65555119 1.47266765 8.65555119 4 8 C4.33 7.34 4.66 6.68 5 6 C7.64 6.33 10.28 6.66 13 7 C13 7.33 13 7.66 13 8 C11.72125 8.20625 10.4425 8.4125 9.125 8.625 C4.22356046 9.69187485 0.53013368 11.83651394 -3.640625 14.5625 C-7.11983167 16.68228155 -9.89804813 18 -14 18 C-14 18.66 -14 19.32 -14 20 C-19.83502275 22.13771571 -25.08576913 23.15847511 -31.3125 23.375 C-36.88195676 23.5206741 -36.88195676 23.5206741 -41.25 26.5625 C-41.8275 27.366875 -42.405 28.17125 -43 29 C-43.66 29 -44.32 29 -45 29 C-45 54.74 -45 80.48 -45 107 C-45.66 107 -46.32 107 -47 107 C-47.86121639 102.88529946 -47.82205366 100.07074104 -47 96 C-46.92103387 94.14209883 -46.89219214 92.28166999 -46.90234375 90.42211914 C-46.90564697 89.32650162 -46.9089502 88.23088409 -46.91235352 87.10206604 C-46.92065186 85.92498581 -46.9289502 84.74790558 -46.9375 83.53515625 C-46.94128662 82.31025986 -46.94507324 81.08536346 -46.94897461 79.823349 C-46.9652628 74.59369765 -46.99320427 69.36412515 -47.02050781 64.13452148 C-47.03876798 60.30973686 -47.0507586 56.48496561 -47.0625 52.66015625 C-47.07079834 51.5012941 -47.07909668 50.34243195 -47.08764648 49.14845276 C-47.1486439 28.39287179 -47.1486439 28.39287179 -45 21 C-43.35 20.67 -41.7 20.34 -40 20 C-40 20.66 -40 21.32 -40 22 C-37.60385425 21.85834107 -35.20817103 21.71181159 -32.8125 21.5625 C-32.13896484 21.52318359 -31.46542969 21.48386719 -30.77148438 21.44335938 C-27.10300898 21.21072435 -23.58305794 20.82792989 -20 20 C-20 19.01 -20 18.02 -20 17 C-18.68 17 -17.36 17 -16 17 C-16 16.34 -16 15.68 -16 15 C-17.35404497 14.97236643 -18.70826555 14.95332578 -20.0625 14.9375 C-21.19365234 14.92009766 -21.19365234 14.92009766 -22.34765625 14.90234375 C-25.06982033 14.94702618 -25.06982033 14.94702618 -28 15.4921875 C-33.60777059 16.34308959 -39.27924184 16.18431584 -44.9375 16.1875 C-46.07896484 16.19974609 -47.22042969 16.21199219 -48.39648438 16.22460938 C-54.6298373 16.23541241 -60.03813508 15.85073844 -66 14 C-62.26741237 12.92871953 -59.84277893 13.3355943 -56 14 C-44.23570814 14.74471205 -33.4051614 13.96707879 -22 11 C-20.04447242 10.59053039 -18.08631997 10.19325904 -16.125 9.8125 C-15.32320312 9.65394531 -14.52140625 9.49539063 -13.6953125 9.33203125 C-13.13585937 9.22246094 -12.57640625 9.11289062 -12 9 C-12 8.34 -12 7.68 -12 7 C-9.4453125 5.23828125 -9.4453125 5.23828125 -6.125 3.3125 C-5.03445312 2.66925781 -3.94390625 2.02601563 -2.8203125 1.36328125 C-1.88960938 0.91339844 -0.95890625 0.46351563 0 0 Z " fill="#D2C7DA" transform="translate(238,325)"/>
<path d="M0 0 C0.66 0 1.32 0 2 0 C2.02325306 8.58027523 2.04098083 17.16053711 2.05181217 25.74083614 C2.05701277 29.72575436 2.0640587 33.7106509 2.07543945 37.69555664 C2.08636923 41.54701002 2.09229806 45.39844265 2.09487724 49.24991035 C2.09671341 50.71337778 2.10029871 52.17684416 2.10573006 53.64030266 C2.16135332 69.2604857 2.16135332 69.2604857 1 76 C0.01 76.495 0.01 76.495 -1 77 C-0.67 56.21 -0.34 35.42 0 14 C-0.66 14 -1.32 14 -2 14 C-2 13.34 -2 12.68 -2 12 C-4.95800528 12.70768358 -4.95800528 12.70768358 -8 14 C-8.309375 14.639375 -8.61875 15.27875 -8.9375 15.9375 C-10.62611003 19.21539005 -13.68611055 19.66281654 -17 21 C-17.73536987 21.73730347 -17.73536987 21.73730347 -18.4855957 22.48950195 C-20.19362844 24.19312899 -21.53586104 24.79290997 -23.79296875 25.60546875 C-24.8612793 25.99702148 -24.8612793 25.99702148 -25.95117188 26.39648438 C-26.68916016 26.65751953 -27.42714844 26.91855469 -28.1875 27.1875 C-28.93708984 27.46013672 -29.68667969 27.73277344 -30.45898438 28.01367188 C-32.30329116 28.68326096 -34.15130012 29.34263721 -36 30 C-36 29.01 -36 28.02 -36 27 C-34.3767313 26.3291288 -32.75132422 25.66342971 -31.125 25 C-30.22007812 24.62875 -29.31515625 24.2575 -28.3828125 23.875 C-26 23 -26 23 -24 23 C-24 22.34 -24 21.68 -24 21 C-23.12214844 20.59007812 -22.24429688 20.18015625 -21.33984375 19.7578125 C-13.14152083 15.4429057 -6.62074822 9.20571567 -1.33984375 1.65234375 C-0.89769531 1.10707031 -0.45554687 0.56179687 0 0 Z " fill="#E07DA1" transform="translate(258,117)"/>
<path d="M0 0 C3.63 0 7.26 0 11 0 C11.33 1.32 11.66 2.64 12 4 C12.928125 4.4640625 12.928125 4.4640625 13.875 4.9375 C16 6 16 6 17.3125 8.5625 C18.87568682 11.41110587 18.87568682 11.41110587 22.6875 11.8125 C23.780625 11.874375 24.87375 11.93625 26 12 C25.33333333 13.33333333 24.66666667 14.66666667 24 16 C24.99882134 18.40949089 24.99882134 18.40949089 26.4375 21 C29 25.80381471 29 25.80381471 29 28 C29.66 28 30.32 28 31 28 C31.07347656 28.96099609 31.07347656 28.96099609 31.1484375 29.94140625 C31.22320312 30.80636719 31.29796875 31.67132813 31.375 32.5625 C31.44460937 33.40941406 31.51421875 34.25632812 31.5859375 35.12890625 C31.93476578 38.108482 31.93476578 38.108482 33.05078125 41.28515625 C34.17342839 45.67872592 34.12388613 49.38687536 33.8125 53.875 C33.76206543 54.6700293 33.71163086 55.46505859 33.65966797 56.28417969 C33.2382511 61.88087123 32.37976926 66.87434312 30 72 C29.54625 73.0725 29.0925 74.145 28.625 75.25 C26.44593952 78.93764081 23.87837699 82.0608115 20 84 C20.268125 83.34 20.53625 82.68 20.8125 82 C23.74351919 74.63462286 23.74351919 74.63462286 26.0625 67.0625 C26.371875 66.051875 26.68125 65.04125 27 64 C27.99 63.505 27.99 63.505 29 63 C28.979375 61.9275 28.95875 60.855 28.9375 59.75 C28.98764543 56.74127407 29.29023616 54.8226762 30 52 C30.51154322 45.99234124 29.65848709 40.35646912 28.4375 34.48046875 C28 32 28 32 28 28 C27.01 27.67 26.02 27.34 25 27 C24.87625 26.195625 24.7525 25.39125 24.625 24.5625 C24.41875 23.716875 24.2125 22.87125 24 22 C23.34 21.67 22.68 21.34 22 21 C21.33333333 19.66666667 20.66666667 18.33333333 20 17 C16.03935484 11.52469369 16.03935484 11.52469369 10.5 8 C7.90547139 6.96218855 6.93261129 5.93261129 5 4 C2.40084462 2.80972016 2.40084462 2.80972016 0 2 C0 1.34 0 0.68 0 0 Z " fill="#C991C0" transform="translate(205,236)"/>
<path d="M0 0 C0.99 0 1.98 0 3 0 C-0.59811939 12.90057439 -6.56941332 17.51844962 -18 24 C-18.76957031 24.46019531 -19.53914063 24.92039062 -20.33203125 25.39453125 C-24.70516784 28 -24.70516784 28 -27 28 C-27 28.66 -27 29.32 -27 30 C-29.87394498 30.81639318 -32.7490513 31.62822141 -35.625 32.4375 C-36.43324219 32.66759766 -37.24148437 32.89769531 -38.07421875 33.13476562 C-52.54281334 37.19302996 -71.11033965 38.94483017 -85 32 C-85 31.34 -85 30.68 -85 30 C-84.319375 30.2165625 -83.63875 30.433125 -82.9375 30.65625 C-69.59436363 34.488853 -57.38618101 34.81047024 -45 28 C-42.88761391 26.75249652 -40.96520936 25.47390702 -39 24 C-38.34 24.33 -37.68 24.66 -37 25 C-37.99 26.32 -38.98 27.64 -40 29 C-39.505 29.99 -39.505 29.99 -39 31 C-37.72125 30.731875 -36.4425 30.46375 -35.125 30.1875 C-34.40570313 30.03667969 -33.68640625 29.88585937 -32.9453125 29.73046875 C-30.62953451 29.07691162 -30.62953451 29.07691162 -29 26 C-26.6171875 25.05078125 -26.6171875 25.05078125 -23.875 24.3125 C-22.96492188 24.06113281 -22.05484375 23.80976563 -21.1171875 23.55078125 C-20.41851562 23.36902344 -19.71984375 23.18726563 -19 23 C-19 22.34 -19 21.68 -19 21 C-17.35666496 19.96210419 -15.68756133 18.96432076 -14 18 C-13.34 17.34 -12.68 16.68 -12 16 C-11.01 16 -10.02 16 -9 16 C-8.814375 15.0409375 -8.814375 15.0409375 -8.625 14.0625 C-8.41875 13.381875 -8.2125 12.70125 -8 12 C-7.34 11.67 -6.68 11.34 -6 11 C-5.67 10.01 -5.34 9.02 -5 8 C-4.01 8 -3.02 8 -2 8 C-1.855625 7.236875 -1.71125 6.47375 -1.5625 5.6875 C-1 3 -1 3 0 0 Z " fill="#A7A0CB" transform="translate(253,304)"/>
<path d="M0 0 C0.33 0 0.66 0 1 0 C1.09347627 23.2004964 1.16399541 46.40096171 1.20724869 69.60160828 C1.2278665 80.37428079 1.25597226 91.14683623 1.30175781 101.91943359 C1.34164937 111.30975422 1.36743849 120.69999006 1.37635398 130.09039307 C1.38156477 135.06173195 1.39379592 140.03282827 1.42292023 145.00408936 C1.45012589 149.68590973 1.45843456 154.36738825 1.45243073 159.04928017 C1.45352866 160.76492484 1.46145185 162.48058128 1.4768219 164.19615746 C1.61293922 180.17691124 1.61293922 180.17691124 -3 187 C-3.33 187 -3.66 187 -4 187 C-4.125 184.125 -4.125 184.125 -4 181 C-3.01 180.01 -3.01 180.01 -2 179 C-1.67561749 176.58262348 -1.4814417 174.27731651 -1.375 171.84765625 C-1.33705322 171.09396255 -1.29910645 170.34026886 -1.26000977 169.56373596 C-0.84912776 160.333274 -0.92895834 151.09975066 -0.98168945 141.86273193 C-1.01490456 135.64940309 -1.02664166 129.43606558 -1.03125 123.22265625 C-1.03179886 122.52419586 -1.03234772 121.82573547 -1.03291321 121.10610962 C-1.04294183 96.86167291 -0.7453599 72.61787817 -0.5 48.375 C-0.47574836 45.96467082 -0.45149706 43.55434164 -0.42724609 41.14401245 C-0.28882133 27.42929913 -0.14633708 13.7146311 0 0 Z " fill="#E3B8D1" transform="translate(260,117)"/>
<path d="M0 0 C0.33 0 0.66 0 1 0 C1.29579987 3.04251291 1.33455477 4.53019968 -0.46875 7.0625 C-9.38334634 15.56565344 -17.96110676 21.0796798 -30.5625 21.3125 C-35.6677247 21.17628171 -40.1862032 20.69392055 -45 19 C-45.82371094 18.72027344 -46.64742188 18.44054687 -47.49609375 18.15234375 C-52.86174081 16.18307952 -56.99099981 14.1145002 -61 10 C-61 9.01 -61 8.02 -61 7 C-58.36 6.34 -55.72 5.68 -53 5 C-52.855625 6.11375 -52.71125 7.2275 -52.5625 8.375 C-52.21627965 11.82142047 -52.21627965 11.82142047 -51 14 C-48.83125748 13.49396008 -47.00032373 13.00016187 -45 12 C-45 13.65 -45 15.3 -45 17 C-41.535 16.505 -41.535 16.505 -38 16 C-37.67 16.99 -37.34 17.98 -37 19 C-33.04 18.505 -33.04 18.505 -29 18 C-29 17.34 -29 16.68 -29 16 C-20.96428571 13.72321429 -20.96428571 13.72321429 -17 15 C-17 14.34 -17 13.68 -17 13 C-15.02253397 12.26919734 -13.01927511 11.60578253 -11 11 C-10.34 11.33 -9.68 11.66 -9 12 C-8.814375 11.13375 -8.814375 11.13375 -8.625 10.25 C-7.44206009 5.99141631 -7.44206009 5.99141631 -6 4 C-2.875 3.25 -2.875 3.25 0 3 C0 2.01 0 1.02 0 0 Z " fill="#4191CA" transform="translate(421,436)"/>
<path d="M0 0 C-2.52988183 3.79482274 -4.82883031 3.96099955 -9 5 C-10.7945427 5.5108359 -12.58617113 6.03200204 -14.375 6.5625 C-15.22835937 6.81128906 -16.08171875 7.06007813 -16.9609375 7.31640625 C-18.9700275 7.82147027 -18.9700275 7.82147027 -20 9 C-21.093125 8.979375 -22.18625 8.95875 -23.3125 8.9375 C-26.84046896 8.99729608 -28.0836914 9.29043978 -31 11 C-32.32860925 11.35169068 -33.66158328 11.68770276 -35 12 C-35.66 12.33 -36.32 12.66 -37 13 C-38.03643501 17.41951532 -38.15258866 21.76191724 -38.21777344 26.28710938 C-38.24183917 27.74336755 -38.26590748 29.19962569 -38.28997803 30.65588379 C-38.30097282 31.41963821 -38.31196762 32.18339264 -38.32329559 32.97029114 C-38.3851856 37.04168237 -38.47237132 41.11257367 -38.5546875 45.18359375 C-38.65731522 50.35159091 -38.7526054 55.51944573 -38.82324219 60.68798828 C-38.88115793 64.8776135 -38.96283293 69.06619429 -39.06018829 73.25508118 C-39.09278702 74.84646751 -39.11667051 76.43805798 -39.13152313 78.02970886 C-39.15339596 80.2585333 -39.2056198 82.48478287 -39.26464844 84.71289062 C-39.28605896 85.97830688 -39.30746948 87.24372314 -39.32952881 88.54748535 C-40.21493042 93.1067596 -41.70370279 94.76811182 -45 98 C-47.9543457 98.68115234 -47.9543457 98.68115234 -51.17578125 98.5859375 C-52.33271484 98.56660156 -53.48964844 98.54726563 -54.68164062 98.52734375 C-55.87982422 98.47707031 -57.07800781 98.42679687 -58.3125 98.375 C-59.53001953 98.34792969 -60.74753906 98.32085937 -62.00195312 98.29296875 C-65.00310498 98.22235341 -68.00064712 98.12376972 -71 98 C-71 97.67 -71 97.34 -71 97 C-70.29391602 96.99589111 -69.58783203 96.99178223 -68.86035156 96.98754883 C-65.65605397 96.95462075 -62.45365979 96.88397754 -59.25 96.8125 C-58.13882813 96.80669922 -57.02765625 96.80089844 -55.8828125 96.79492188 C-49.47429737 96.82924292 -49.47429737 96.82924292 -44.359375 93.44921875 C-43.68648437 92.23685547 -43.68648437 92.23685547 -43 91 C-42.34 91 -41.68 91 -41 91 C-41 65.26 -41 39.52 -41 13 C-40.34 13 -39.68 13 -39 13 C-38.731875 12.38125 -38.46375 11.7625 -38.1875 11.125 C-37 9 -37 9 -34 7 C-31.73654284 6.75256617 -29.46237823 6.59690642 -27.1875 6.5 C-22.36820969 6.2933852 -18.54465541 5.57193102 -14 4 C-12.68 4 -11.36 4 -10 4 C-10 3.34 -10 2.68 -10 2 C-8.71211992 1.46987262 -7.41953322 0.9511671 -6.125 0.4375 C-5.40570313 0.14746094 -4.68640625 -0.14257812 -3.9453125 -0.44140625 C-2 -1 -2 -1 0 0 Z " fill="#8E97CA" transform="translate(234,341)"/>
<path d="M0 0 C3.16115776 1.36983503 3.9927092 1.9890638 6 5 C6.18491553 8.02109652 6.25206923 10.94876795 6.22705078 13.96948242 C6.22734283 14.88675613 6.22763489 15.80402985 6.22793579 16.74909973 C6.22654111 19.7846519 6.21097333 22.8199594 6.1953125 25.85546875 C6.19158286 27.95868292 6.18873566 30.06189883 6.18673706 32.16511536 C6.17909673 37.70373319 6.15944475 43.24224632 6.1373291 48.78082275 C6.11687932 54.43134138 6.1077372 60.08187691 6.09765625 65.73242188 C6.07619928 76.82166062 6.04205847 87.9108216 6 99 C2.09707642 96.38366699 2.09707642 96.38366699 1.22338867 92.93066406 C0.95881464 88.27531777 1.14417701 83.75886041 1.42578125 79.109375 C2.14074192 65.24617361 2.18759499 51.39040519 2.18530273 37.51318359 C2.18519903 33.90779608 2.19911606 30.30259645 2.21607494 26.69725418 C2.22715469 23.89033098 2.22922359 21.08345498 2.22869301 18.27651215 C2.23043596 16.30275514 2.24125256 14.32901282 2.25224304 12.35528564 C2.24916641 11.16844177 2.24608978 9.9815979 2.24291992 8.75878906 C2.24434494 7.71563538 2.24576996 6.67248169 2.24723816 5.59771729 C2.18430845 2.76364459 2.18430845 2.76364459 0 0 Z " fill="#90A9D3" transform="translate(256,336)"/>
<path d="M0 0 C0.495 0.99 0.495 0.99 1 2 C1.66 2 2.32 2 3 2 C2.979375 2.94875 2.95875 3.8975 2.9375 4.875 C2.77448174 7.90666283 2.77448174 7.90666283 4 10 C3.01 10.66 2.02 11.32 1 12 C1.495 13.485 1.495 13.485 2 15 C3.04671875 14.91621094 4.0934375 14.83242188 5.171875 14.74609375 C16.77652256 13.92925223 28.21047189 14.12185268 39.82910156 14.68139648 C40.99022461 14.73497314 42.15134766 14.7885498 43.34765625 14.84375 C44.38929932 14.89724609 45.43094238 14.95074219 46.50415039 15.00585938 C49.00061665 15.18515524 49.00061665 15.18515524 51 14 C53.01927511 14.60578253 55.02253397 15.26919734 57 16 C57 16.33 57 16.66 57 17 C27.63 17 -1.74 17 -32 17 C-32 16.34 -32 15.68 -32 15 C-31.23856689 14.98541748 -30.47713379 14.97083496 -29.69262695 14.95581055 C-26.23208112 14.88119459 -22.77248555 14.78457741 -19.3125 14.6875 C-18.11431641 14.66494141 -16.91613281 14.64238281 -15.68164062 14.61914062 C-14.52470703 14.58369141 -13.36777344 14.54824219 -12.17578125 14.51171875 C-11.11270752 14.48553467 -10.04963379 14.45935059 -8.9543457 14.43237305 C-5.61456712 13.9435913 -3.67977494 13.03226371 -1 11 C-0.183093 8.28344628 -0.183093 8.28344628 -0.1875 5.3125 C-0.13980469 4.31863281 -0.09210938 3.32476562 -0.04296875 2.30078125 C-0.02878906 1.54152344 -0.01460937 0.78226562 0 0 Z " fill="#5694C2" transform="translate(195,424)"/>
<path d="M0 0 C0 4.04474524 -1.52179376 5.14183461 -4.125 8.1875 C-4.94097656 9.1671875 -5.75695312 10.146875 -6.59765625 11.15625 C-8.03147911 12.85352324 -9.47384354 14.54372349 -10.93359375 16.21875 C-13.79040987 19.6715925 -15.35096407 21.92516171 -15.375 26.5 C-15.25125 27.655 -15.1275 28.81 -15 30 C-14.01 30.33 -13.02 30.66 -12 31 C-11.375 32.875 -11.375 32.875 -11 35 C-10.67 35.99 -10.34 36.98 -10 38 C-9.01 38 -8.02 38 -7 38 C-6.71125 38.804375 -6.4225 39.60875 -6.125 40.4375 C-5.26737432 43.1326468 -5.26737432 43.1326468 -3 44 C-2.27840576 45.64363134 -1.60648579 47.31050386 -1 49 C-0.01 49 0.98 49 2 49 C2.103125 49.763125 2.20625 50.52625 2.3125 51.3125 C2.75593985 54.02954673 2.75593985 54.02954673 4.5625 55.5 C6 57 6 57 6.1875 59.6875 C6.0946875 60.8321875 6.0946875 60.8321875 6 62 C4.68 61.34 3.36 60.68 2 60 C2 59.01 2 58.02 2 57 C0.68 56.67 -0.64 56.34 -2 56 C-2 54.02 -2 52.04 -2 50 C-2.66 50 -3.32 50 -4 50 C-4.33 48.68 -4.66 47.36 -5 46 C-5.66 46 -6.32 46 -7 46 C-7.66 45.34 -8.32 44.68 -9 44 C-9.66 43.67 -10.32 43.34 -11 43 C-11.495 41.515 -11.495 41.515 -12 40 C-13.11877463 37.4182124 -14.13807287 35.85786617 -16.125 33.8125 C-18.7566042 29.8650937 -18.80001226 26.61862749 -18 22 C-16.4375 19.0625 -16.4375 19.0625 -14 16 C-12.78821759 14.21066429 -11.58011403 12.41883362 -10.375 10.625 C-8.5859375 7.9765625 -8.5859375 7.9765625 -7 6 C-6.34 6 -5.68 6 -5 6 C-5 5.34 -5 4.68 -5 4 C-4.34 4 -3.68 4 -3 4 C-2.67 3.01 -2.34 2.02 -2 1 C-1.34 0.67 -0.68 0.34 0 0 Z " fill="#B5A3CD" transform="translate(282,290)"/>
<path d="M0 0 C41.91 0 83.82 0 127 0 C127 0.33 127 0.66 127 1 C125.93676514 1.02505615 124.87353027 1.0501123 123.77807617 1.07592773 C119.78400284 1.17103083 115.79006247 1.27098799 111.79614258 1.37231445 C110.07677347 1.41527857 108.35737215 1.45697537 106.63793945 1.49731445 C98.14821586 1.69727596 89.73624244 1.95116603 81.28442383 2.82397461 C77.73843217 3.09720962 74.28722549 2.85470741 70.75 2.5625 C63.51655233 2.06936376 56.31258665 1.88383008 49.0625 1.875 C48.12825195 1.87056885 47.19400391 1.8661377 46.23144531 1.86157227 C40.47188705 1.87329526 34.83869067 2.23330663 29.11499023 2.88330078 C28.06807007 2.94106689 28.06807007 2.94106689 27 3 C26.67 2.67 26.34 2.34 26 2 C24.07521187 1.84193469 22.1450079 1.748865 20.21484375 1.68359375 C19.04501953 1.64169922 17.87519531 1.59980469 16.66992188 1.55664062 C14.82237305 1.49766602 14.82237305 1.49766602 12.9375 1.4375 C11.70193359 1.39431641 10.46636719 1.35113281 9.19335938 1.30664062 C6.12902665 1.20015802 3.06460927 1.09814576 0 1 C0 0.67 0 0.34 0 0 Z " fill="#AEBBDC" transform="translate(163,441)"/>
<path d="M0 0 C0.99 0 1.98 0 3 0 C2.67 3.63 2.34 7.26 2 11 C1.34 11 0.68 11 0 11 C0 10.34 0 9.68 0 9 C-2.95800528 9.70768358 -2.95800528 9.70768358 -6 11 C-6.309375 11.639375 -6.61875 12.27875 -6.9375 12.9375 C-8.62611003 16.21539005 -11.68611055 16.66281654 -15 18 C-15.73536987 18.73730347 -15.73536987 18.73730347 -16.4855957 19.48950195 C-18.19362844 21.19312899 -19.53586104 21.79290997 -21.79296875 22.60546875 C-22.8612793 22.99702148 -22.8612793 22.99702148 -23.95117188 23.39648438 C-24.68916016 23.65751953 -25.42714844 23.91855469 -26.1875 24.1875 C-26.93708984 24.46013672 -27.68667969 24.73277344 -28.45898438 25.01367188 C-30.30329116 25.68326096 -32.15130012 26.34263721 -34 27 C-34 26.01 -34 25.02 -34 24 C-32.3767313 23.3291288 -30.75132422 22.66342971 -29.125 22 C-28.22007812 21.62875 -27.31515625 21.2575 -26.3828125 20.875 C-24 20 -24 20 -22 20 C-22 19.34 -22 18.68 -22 18 C-21.12472656 17.59394531 -20.24945313 17.18789062 -19.34765625 16.76953125 C-12.78919116 13.30280466 -6.58947465 8.29640381 -2 2.4375 C-1.34 1.633125 -0.68 0.82875 0 0 Z " fill="#E57395" transform="translate(256,120)"/>
<path d="M0 0 C2.43842158 4.87684316 2.13674057 7.88883443 1.8125 13.1875 C1.78091797 14.00025391 1.74933594 14.81300781 1.71679688 15.65039062 C1.14490146 26.06883315 -2.09294555 35.9039255 -10 43 C-10.99 43.495 -10.99 43.495 -12 44 C-11.731875 43.34 -11.46375 42.68 -11.1875 42 C-8.25648081 34.63462286 -8.25648081 34.63462286 -5.9375 27.0625 C-5.628125 26.051875 -5.31875 25.04125 -5 24 C-4.34 23.67 -3.68 23.34 -3 23 C-3.020625 21.9275 -3.04125 20.855 -3.0625 19.75 C-3.0142016 16.85209576 -2.86844115 14.71387859 -2 12 C-1.34 12 -0.68 12 0 12 C0 8.04 0 4.08 0 0 Z " fill="#C1A6CB" transform="translate(237,276)"/>
<path d="M0 0 C0.33 0 0.66 0 1 0 C1.11595023 10.19657388 1.20474396 20.39299043 1.25906086 30.5900898 C1.28513303 35.32527104 1.32048734 40.06000058 1.37719727 44.79492188 C1.43160235 49.36611228 1.46143845 53.93686877 1.47438622 58.508358 C1.48361089 60.25068872 1.50162498 61.99299622 1.52865028 63.73514175 C1.56505515 66.17957758 1.56994081 68.62223037 1.56762695 71.06689453 C1.58560333 71.78403122 1.60357971 72.50116791 1.62210083 73.24003601 C1.58308502 77.06006962 0.97903882 79.49802338 -1.35083008 82.45324707 C-4 85 -4 85 -6.9543457 85.68115234 C-8.5489563 85.634021 -8.5489563 85.634021 -10.17578125 85.5859375 C-11.33271484 85.56660156 -12.48964844 85.54726563 -13.68164062 85.52734375 C-14.87982422 85.47707031 -16.07800781 85.42679687 -17.3125 85.375 C-18.53001953 85.34792969 -19.74753906 85.32085937 -21.00195312 85.29296875 C-24.00310498 85.22235341 -27.00064712 85.12376972 -30 85 C-30 84.67 -30 84.34 -30 84 C-29.29391602 83.99589111 -28.58783203 83.99178223 -27.86035156 83.98754883 C-24.65605397 83.95462075 -21.45365979 83.88397754 -18.25 83.8125 C-17.13882813 83.80669922 -16.02765625 83.80089844 -14.8828125 83.79492188 C-8.47429737 83.82924292 -8.47429737 83.82924292 -3.359375 80.44921875 C-2.68648437 79.23685547 -2.68648437 79.23685547 -2 78 C-1.34 78 -0.68 78 0 78 C0 52.26 0 26.52 0 0 Z " fill="#9EB5DB" transform="translate(193,354)"/>
<path d="M0 0 C0.33 3.3 0.66 6.6 1 10 C-0.98 11.32 -2.96 12.64 -5 14 C-5 11.69 -5 9.38 -5 7 C-4.34 7 -3.68 7 -3 7 C-3.33 5.35 -3.66 3.7 -4 2 C-9.42892065 2.43431365 -12.70796704 3.62768839 -17 7 C-17.33 7.66 -17.66 8.32 -18 9 C-18.99 9 -19.98 9 -21 9 C-20.35330586 7.65686601 -19.68096422 6.32608822 -19 5 C-18.566875 4.13375 -18.13375 3.2675 -17.6875 2.375 C-13.37538499 -3.6939026 -6.12400846 -2.88188633 0 0 Z " fill="#E5C8E4" transform="translate(181,263)"/>
<path d="M0 0 C0.82638376 2.89234315 1 4.88742431 1 8 C0.02149805 9.02104551 -0.97980427 10.0206121 -2 11 C-2.71447643 13.10332891 -2.71447643 13.10332891 -3 15 C-3.99 15 -4.98 15 -6 15 C-7.27959327 16.44364369 -8.55195005 17.89675727 -9.73828125 19.41796875 C-11 21 -11 21 -13.125 23.0625 C-15.15148281 24.97340163 -15.15148281 24.97340163 -16.4375 27.75 C-17.2109375 28.86375 -17.2109375 28.86375 -18 30 C-20.6875 30.3125 -20.6875 30.3125 -23 30 C-23 28.68 -23 27.36 -23 26 C-21.3125 24.39453125 -21.3125 24.39453125 -19 22.8125 C-10.59778661 16.61306469 -5.01071723 9.09141498 0 0 Z " fill="#B4C9EA" transform="translate(431,426)"/>
<path d="M0 0 C2.46800047 1.15173355 4.04783565 2.04783565 6 4 C6.2784729 6.97390747 6.2784729 6.97390747 6.31884766 10.83642578 C6.32889328 11.53897491 6.3389389 12.24152405 6.34928894 12.96536255 C6.38022731 15.29200406 6.39718527 17.61852996 6.4140625 19.9453125 C6.43276562 21.55672203 6.45233839 23.16812168 6.4727478 24.7795105 C6.52416562 29.0242125 6.56373948 33.2689463 6.60089111 37.51379395 C6.64087047 41.843912 6.6919904 46.17389673 6.7421875 50.50390625 C6.83906096 59.00251323 6.92342895 67.50118597 7 76 C6.34 76 5.68 76 5 76 C3.68572494 69.01933491 3.87418645 62.05480747 3.90234375 54.97265625 C3.9042116 53.61502637 3.90563377 52.25739581 3.90663147 50.89976501 C3.91042778 47.34717916 3.92023304 43.79463496 3.93133545 40.24206543 C3.94161199 36.60864831 3.9461424 32.97522438 3.95117188 29.34179688 C3.96185823 22.22784767 3.97889951 15.11392657 4 8 C3.67 8 3.34 8 3 8 C3 6.35 3 4.7 3 3 C2.01 3 1.02 3 0 3 C0 2.01 0 1.02 0 0 Z " fill="#DEBECB" transform="translate(187,153)"/>
<path d="M0 0 C0.99 0 1.98 0 3 0 C1.49767891 3.44511328 -0.52405659 5.87002875 -3.0625 8.625 C-6.86931879 12.60537002 -6.86931879 12.60537002 -8.3125 17.75 C-7.92545327 21.775286 -6.34803911 23.77144623 -4 27 C-4 27.66 -4 28.32 -4 29 C-4.99 29 -5.98 29 -7 29 C-8.4216319 25.6828589 -9.39009109 22.55780196 -10 19 C-10.66 19 -11.32 19 -12 19 C-12 19.99 -12 20.98 -12 22 C-13.45955349 23.29738088 -14.92691402 24.58952965 -16.46484375 25.79296875 C-18.10657835 27.08379825 -19.56436513 28.48460764 -21 30 C-21 25.91060722 -18.88869772 23.9264731 -16.4375 20.875 C-15.98294434 20.2975 -15.52838867 19.72 -15.06005859 19.125 C-14.14134188 17.9583756 -13.21981248 16.7939604 -12.29541016 15.63183594 C-10.55245948 13.43623052 -8.83906087 11.21819643 -7.125 9 C-6.57585937 8.30003906 -6.02671875 7.60007812 -5.4609375 6.87890625 C-4.1965176 5.25274056 -2.96961602 3.59753292 -1.75 1.9375 C-1.1725 1.298125 -0.595 0.65875 0 0 Z " fill="#CBABD3" transform="translate(303,261)"/>
<path d="M0 0 C0.33 0.66 0.66 1.32 1 2 C1.66 2 2.32 2 3 2 C2.979375 2.94875 2.95875 3.8975 2.9375 4.875 C2.77448174 7.90666283 2.77448174 7.90666283 4 10 C3.01 10.66 2.02 11.32 1 12 C1.33 12.99 1.66 13.98 2 15 C3.093125 14.91621094 4.18625 14.83242188 5.3125 14.74609375 C18.60486112 13.83545847 31.70661588 14.24735109 45 15 C45 15.33 45 15.66 45 16 C28.5 16 12 16 -5 16 C-4.67 14.68 -4.34 13.36 -4 12 C-3.01 11.67 -2.02 11.34 -1 11 C-0.67 7.37 -0.34 3.74 0 0 Z " fill="#438FCD" transform="translate(195,424)"/>
<path d="M0 0 C0.66 0.33 1.32 0.66 2 1 C1.360625 1.598125 0.72125 2.19625 0.0625 2.8125 C-2.20310389 4.90810337 -2.20310389 4.90810337 -3 8 C-4.66666667 8.66666667 -6.33333333 9.33333333 -8 10 C-8.33 10.99 -8.66 11.98 -9 13 C-9.99 13.495 -9.99 13.495 -11 14 C-13.33312665 17.49968997 -14.83109101 19.94431879 -15.5 24.125 C-16 27 -16 27 -18 29 C-20.33733871 25.49399193 -20.44523785 24.12621585 -20 20 C-15.77132029 12.57028062 -7.70314386 3.85157193 0 0 Z " fill="#E9D8E4" transform="translate(314,256)"/>
<path d="M0 0 C0.33 0 0.66 0 1 0 C1.29579987 3.04251291 1.33455477 4.53019968 -0.46875 7.0625 C-4.99468921 11.37954971 -9.49175159 15.01443679 -15 18 C-15.680625 18.37125 -16.36125 18.7425 -17.0625 19.125 C-19.47387354 20.2140074 -21.38432839 20.14531509 -24 20 C-23.67 19.34 -23.34 18.68 -23 18 C-22.34 18 -21.68 18 -21 18 C-21 17.34 -21 16.68 -21 16 C-19.68 15.67 -18.36 15.34 -17 15 C-17 14.34 -17 13.68 -17 13 C-15.02253397 12.26919734 -13.01927511 11.60578253 -11 11 C-10.34 11.33 -9.68 11.66 -9 12 C-8.87625 11.4225 -8.7525 10.845 -8.625 10.25 C-7.44206009 5.99141631 -7.44206009 5.99141631 -6 4 C-2.875 3.25 -2.875 3.25 0 3 C0 2.01 0 1.02 0 0 Z " fill="#4F98CD" transform="translate(421,436)"/>
<path d="M0 0 C0.33 0 0.66 0 1 0 C1.00364563 0.82019119 1.00729126 1.64038239 1.01104736 2.48542786 C1.04889636 10.21073624 1.10571289 17.93556073 1.18390274 25.66055775 C1.22343155 29.63220193 1.25559315 33.60362262 1.27099609 37.57543945 C1.28612764 41.40770734 1.32050926 45.23936101 1.36830902 49.07135582 C1.3831593 50.53414258 1.39104311 51.99701702 1.39188385 53.45987892 C1.39424457 55.50753064 1.42124564 57.55347242 1.45410156 59.60083008 C1.46298401 60.76665115 1.47186646 61.93247223 1.48101807 63.13362122 C1.70071954 66.12370061 1.70071954 66.12370061 4.03411865 67.64994812 C5.00722992 68.3182238 5.00722992 68.3182238 6 69 C6 70.32 6 71.64 6 73 C6.928125 73.185625 6.928125 73.185625 7.875 73.375 C10 74 10 74 12 76 C8.1690781 76.56337087 7.01629806 76.01128327 3.75 73.75 C0.29952703 70.29952703 0.06935192 68.74431385 -0.12025452 63.97540283 C-0.1169236 62.2033548 -0.1169236 62.2033548 -0.11352539 60.39550781 C-0.11367142 59.74143448 -0.11381744 59.08736115 -0.1139679 58.41346741 C-0.11327341 56.25998574 -0.10550283 54.10659148 -0.09765625 51.953125 C-0.09579042 50.45668586 -0.09436729 48.96024612 -0.09336853 47.46380615 C-0.08955635 43.53141585 -0.07973717 39.59906268 -0.06866455 35.66668701 C-0.05842249 31.65149437 -0.05386492 27.6362957 -0.04882812 23.62109375 C-0.03811372 15.74737883 -0.02105291 7.87369404 0 0 Z " fill="#D791AE" transform="translate(193,160)"/>
<path d="M0 0 C0.66 0 1.32 0 2 0 C1.16861362 5.12688267 -0.60020097 7.83273484 -4.5625 11.125 C-6.8405771 12.99756971 -6.8405771 12.99756971 -9 15 C-13.61733357 15.59296284 -17.62051477 15.66885603 -21.5625 13 C-22.366875 12.34 -23.17125 11.68 -24 11 C-21.45297384 9.72648692 -20.5717055 10.19808075 -17.875 10.9375 C-16.78832031 11.22947266 -16.78832031 11.22947266 -15.6796875 11.52734375 C-15.12539063 11.68332031 -14.57109375 11.83929688 -14 12 C-13.34 10.68 -12.68 9.36 -12 8 C-12 8.66 -12 9.32 -12 10 C-11.34 10 -10.68 10 -10 10 C-9.67 9.34 -9.34 8.68 -9 8 C-8.34 8.33 -7.68 8.66 -7 9 C-6.5875 8.38125 -6.175 7.7625 -5.75 7.125 C-3.94426121 4.93231719 -2.5909466 4.07211583 0 3 C0 2.01 0 1.02 0 0 Z " fill="#DADBF1" transform="translate(433,416)"/>
<path d="M0 0 C0.99 0 1.98 0 3 0 C3 0.66 3 1.32 3 2 C3.99 2.33 4.98 2.66 6 3 C9 7.33333333 9 7.33333333 9 10 C9.66 10 10.32 10 11 10 C11 10.99 11 11.98 11 13 C12.32 13 13.64 13 15 13 C15 14.32 15 15.64 15 17 C15.66 17 16.32 17 17 17 C17.515625 18.19625 18.03125 19.3925 18.5625 20.625 C20.5427271 24.65668539 22.90997469 26.95587022 26.51171875 29.578125 C28.31241648 31.29847664 28.61165296 32.5767145 29 35 C20.3519809 28.23198505 13.64527903 19.49270074 7.25390625 10.62109375 C6.02318121 8.95220188 6.02318121 8.95220188 4.4453125 7.484375 C2.32648534 5.30828224 1.27432108 2.73068803 0 0 Z " fill="#D5DAF4" transform="translate(380,391)"/>
<path d="M0 0 C2.31 0.33 4.62 0.66 7 1 C7 1.66 7 2.32 7 3 C7.99 3.33 8.98 3.66 10 4 C10 4.66 10 5.32 10 6 C10.99 5.67 11.98 5.34 13 5 C14.82421875 5.99609375 14.82421875 5.99609375 16.6875 7.4375 C17.31011719 7.91058594 17.93273437 8.38367188 18.57421875 8.87109375 C19.27998047 9.42990234 19.27998047 9.42990234 20 10 C19.01 10.495 19.01 10.495 18 11 C15.875 10.0625 15.875 10.0625 14 9 C14 9.66 14 10.32 14 11 C14.66 11.33 15.32 11.66 16 12 C14.68 12 13.36 12 12 12 C12 11.34 12 10.68 12 10 C11.0925 9.938125 10.185 9.87625 9.25 9.8125 C5.18885227 8.79721307 4.24817684 7.45255728 2 4 C1.29114106 2.68861096 0.60543548 1.36222983 0 0 Z " fill="#ABA1CB" transform="translate(154,325)"/>
<path d="M0 0 C1.32 0.33 2.64 0.66 4 1 C-2.14285714 6.57142857 -2.14285714 6.57142857 -7 7 C-7 7.66 -7 8.32 -7 9 C-14.93186711 12.68466167 -22.30799763 14.96743943 -31 16 C-30.67 15.01 -30.34 14.02 -30 13 C-24.555 12.505 -24.555 12.505 -19 12 C-18.67 11.01 -18.34 10.02 -18 9 C-16.906875 8.896875 -15.81375 8.79375 -14.6875 8.6875 C-10.88845793 7.97920402 -10.41623585 7.64635355 -8 5 C-6.68 5 -5.36 5 -4 5 C-4 4.34 -4 3.68 -4 3 C-3.01 3 -2.02 3 -1 3 C-0.67 2.01 -0.34 1.02 0 0 Z " fill="#F4C6D0" transform="translate(241,131)"/>
<path d="M0 0 C0.33 0 0.66 0 1 0 C1 21.12 1 42.24 1 64 C0.34 64 -0.32 64 -1 64 C-2.1284267 58.60862799 -2.1284267 58.60862799 -1.52929688 55.76928711 C-0.86386052 52.28771671 -0.91664056 48.9055657 -0.96875 45.37890625 C-1.0385727 35.88980688 -0.78759747 26.42146099 -0.5 16.9375 C-0.45159744 15.28060553 -0.40341942 13.62370448 -0.35546875 11.96679688 C-0.23955217 7.97778448 -0.12065126 3.98887188 0 0 Z " fill="#C4C3D2" transform="translate(192,368)"/>
<path d="M0 0 C8.25 0 16.5 0 25 0 C25.33 0.99 25.66 1.98 26 3 C17.75 3 9.5 3 1 3 C0.67 2.01 0.34 1.02 0 0 Z " fill="#E390A8" transform="translate(163,150)"/>
<path d="M0 0 C0.66 0 1.32 0 2 0 C2 22.11 2 44.22 2 67 C1.67 67 1.34 67 1 67 C1 45.88 1 24.76 1 3 C0.01 2.67 -0.98 2.34 -2 2 C-1.34 1.34 -0.68 0.68 0 0 Z " fill="#DD8BA6" transform="translate(258,117)"/>
<path d="M0 0 C0.99 0 1.98 0 3 0 C3.103125 1.11375 3.20625 2.2275 3.3125 3.375 C3.539375 4.57125 3.76625 5.7675 4 7 C4.99 7.66 5.98 8.32 7 9 C7.6875 11.625 7.6875 11.625 8 14 C9.65 14 11.3 14 13 14 C13 16.64 13 19.28 13 22 C7.70235135 17.01397774 1.99051327 11.16584777 0 4 C0 2.68 0 1.36 0 0 Z " fill="#5B90C8" transform="translate(329,402)"/>
<path d="M0 0 C3.27742098 3.10026309 5.93104837 5.97098894 8 10 C8 10.66 8 11.32 8 12 C8.66 12 9.32 12 10 12 C11.03387512 20.0125322 11.10466648 27.92905177 11 36 C10.67 36 10.34 36 10 36 C9.86722656 34.85402344 9.73445312 33.70804687 9.59765625 32.52734375 C9.41931812 30.99739032 9.24093004 29.46744271 9.0625 27.9375 C8.93198242 26.80924805 8.93198242 26.80924805 8.79882812 25.65820312 C8.26536361 21.09411781 7.67013702 16.54606466 7 12 C6.01 11.67 5.02 11.34 4 11 C3.87625 10.195625 3.7525 9.39125 3.625 8.5625 C3.315625 7.2940625 3.315625 7.2940625 3 6 C2.34 5.67 1.68 5.34 1 5 C0.375 2.4375 0.375 2.4375 0 0 Z " fill="#CDADCC" transform="translate(226,252)"/>
<path d="M0 0 C2.7839183 1.39195915 2.97898997 3.15575779 4 6 C4.99 6 5.98 6 7 6 C7.103125 6.763125 7.20625 7.52625 7.3125 8.3125 C7.75593985 11.02954673 7.75593985 11.02954673 9.5625 12.5 C11 14 11 14 11.1875 16.6875 C11.125625 17.450625 11.06375 18.21375 11 19 C9.68 18.34 8.36 17.68 7 17 C7 16.01 7 15.02 7 14 C5.68 13.67 4.36 13.34 3 13 C3 11.02 3 9.04 3 7 C2.34 7 1.68 7 1 7 C0.34 5.02 -0.32 3.04 -1 1 C-0.67 0.67 -0.34 0.34 0 0 Z " fill="#A4A1C7" transform="translate(277,333)"/>
<path d="M0 0 C0 0.66 0 1.32 0 2 C2.64 2 5.28 2 8 2 C8 2.33 8 2.66 8 3 C6.741875 3.2475 5.48375 3.495 4.1875 3.75 C1.1723125 4.48385516 0.23457187 4.73415188 -1.875 7.125 C-2.24625 7.74375 -2.6175 8.3625 -3 9 C-3.66 9 -4.32 9 -5 9 C-5 13.62 -5 18.24 -5 23 C-5.66 22.67 -6.32 22.34 -7 22 C-6.85888117 19.24968413 -6.71228835 16.49984582 -6.5625 13.75 C-6.52318359 12.97269531 -6.48386719 12.19539063 -6.44335938 11.39453125 C-6.40146484 10.64042969 -6.35957031 9.88632812 -6.31640625 9.109375 C-6.27974854 8.41811523 -6.24309082 7.72685547 -6.20532227 7.01464844 C-5.98756794 4.87801505 -5.74673939 3.01933622 -5 1 C-2 0 -2 0 0 0 Z " fill="#D8CFE3" transform="translate(198,345)"/>
<path d="M0 0 C3.42653034 0.61878652 5.52992769 1.94396078 8.3125 4 C12.34568879 6.79118032 15.12933198 7.79273753 20 8 C19.67 8.66 19.34 9.32 19 10 C15.9375 10.625 15.9375 10.625 13 11 C12.67 10.34 12.34 9.68 12 9 C9.41394668 8.5316735 9.41394668 8.5316735 6.4375 8.375 C5.42558594 8.30023438 4.41367187 8.22546875 3.37109375 8.1484375 C2.19740234 8.07496094 2.19740234 8.07496094 1 8 C1.33 6.02 1.66 4.04 2 2 C1.34 2 0.68 2 0 2 C0 1.34 0 0.68 0 0 Z " fill="#5297D0" transform="translate(404,424)"/>
<path d="M0 0 C0 3 0 3 -2.6875 5.875 C-7.69605066 9.97010597 -13.78016754 12.36576951 -20 14 C-22.12890625 13.6640625 -22.12890625 13.6640625 -24 13 C-25.41366158 12.79104637 -26.83060623 12.60309594 -28.25 12.4375 C-29.4875 12.293125 -30.725 12.14875 -32 12 C-32 11.67 -32 11.34 -32 11 C-30.22496094 10.87044922 -30.22496094 10.87044922 -28.4140625 10.73828125 C-18.07431775 9.86551667 -9.44333224 8.7953165 -1.375 1.6875 C-0.92125 1.130625 -0.4675 0.57375 0 0 Z " fill="#CBBED4" transform="translate(203,312)"/>
<path d="M0 0 C0.99 0 1.98 0 3 0 C0.84986246 7.70902973 -1.97144158 14.57461136 -9 19 C-9.66 18.67 -10.32 18.34 -11 18 C-8.25 12.125 -8.25 12.125 -6 11 C-5.67 10.01 -5.34 9.02 -5 8 C-4.01 8 -3.02 8 -2 8 C-1.855625 7.236875 -1.71125 6.47375 -1.5625 5.6875 C-1 3 -1 3 0 0 Z " fill="#B5A6CD" transform="translate(253,304)"/>
<path d="M0 0 C0.99 0 1.98 0 3 0 C5 6 5 6 5 8 C5.66 8 6.32 8 7 8 C7 8.99 7 9.98 7 11 C7.66 11 8.32 11 9 11 C9.33 12.65 9.66 14.3 10 16 C10.99 16 11.98 16 13 16 C13 16.99 13 17.98 13 19 C8.68408463 17.44344036 6.38078475 14.14370871 3.6875 10.625 C3.22021484 10.0475 2.75292969 9.47 2.27148438 8.875 C-1.04954971 4.5777683 -1.04954971 4.5777683 -0.79296875 1.5859375 C-0.53128906 1.06257813 -0.26960938 0.53921875 0 0 Z " fill="#6F90C5" transform="translate(315,384)"/>
<path d="M0 0 C1.485 0.99 1.485 0.99 3 2 C2.835 2.639375 2.67 3.27875 2.5 3.9375 C1.77224585 8.39499414 0.92982558 13.85965115 3 18 C2.9140625 19.91796875 2.9140625 19.91796875 2.625 22.1875 C2.52574219 22.98414063 2.42648437 23.78078125 2.32421875 24.6015625 C1.90031859 27.73740224 1.46615226 30.87012057 1 34 C0.67 34 0.34 34 0 34 C0 22.78 0 11.56 0 0 Z " fill="#DED7EC" transform="translate(261,342)"/>
<path d="M0 0 C0.82638376 2.89234315 1 4.88742431 1 8 C0.02149805 9.02104551 -0.97980427 10.0206121 -2 11 C-2.71447643 13.10332891 -2.71447643 13.10332891 -3 15 C-3.99 15 -4.98 15 -6 15 C-8.18777466 16.9375006 -8.18777466 16.9375006 -10 19 C-8.62394084 14.23448987 -6.53221934 10.2751447 -3.875 6.125 C-3.50246094 5.53203125 -3.12992187 4.9390625 -2.74609375 4.328125 C-1.83635 2.8818657 -0.91896202 1.44041954 0 0 Z " fill="#CED7EF" transform="translate(431,426)"/>
<path d="M0 0 C8.91 0 17.82 0 27 0 C27 0.99 27 1.98 27 3 C13.14 2.505 13.14 2.505 -1 2 C-0.67 1.34 -0.34 0.68 0 0 Z " fill="#71A4D2" transform="translate(263,438)"/>
<path d="M0 0 C-1.15173355 2.46800047 -2.04783565 4.04783565 -4 6 C-6.43017578 6.22705078 -6.43017578 6.22705078 -9.4453125 6.1953125 C-10.52167969 6.18886719 -11.59804687 6.18242187 -12.70703125 6.17578125 C-13.83496094 6.15902344 -14.96289062 6.14226562 -16.125 6.125 C-17.26066406 6.11597656 -18.39632812 6.10695313 -19.56640625 6.09765625 C-22.37781299 6.07403098 -25.18880298 6.04109013 -28 6 C-28.33 6.99 -28.66 7.98 -29 9 C-29 8.01 -29 7.02 -29 6 C-29.66 5.67 -30.32 5.34 -31 5 C-28.49502996 3.74751498 -26.79146726 3.88625594 -23.9921875 3.90234375 C-23.00605469 3.90556641 -22.01992187 3.90878906 -21.00390625 3.91210938 C-19.97136719 3.92048828 -18.93882812 3.92886719 -17.875 3.9375 C-16.31458984 3.94426758 -16.31458984 3.94426758 -14.72265625 3.95117188 C-12.14838038 3.96298048 -9.57421854 3.97944925 -7 4 C-6.67 3.01 -6.34 2.02 -6 1 C-4 0 -4 0 0 0 Z " fill="#D2D3F0" transform="translate(191,432)"/>
<path d="M0 0 C0 0.99 0 1.98 0 3 C-2 3.66666667 -4 4.33333333 -6 5 C-6.9075 5.391875 -7.815 5.78375 -8.75 6.1875 C-13.24192628 7.31048157 -17.48639032 7.00663238 -22 6 C-22.66 5.34 -23.32 4.68 -24 4 C-22.12054688 3.81824219 -22.12054688 3.81824219 -20.203125 3.6328125 C-18.55204135 3.46395167 -16.90100191 3.29465817 -15.25 3.125 C-14.425 3.04636719 -13.6 2.96773438 -12.75 2.88671875 C-11.55117188 2.76103516 -11.55117188 2.76103516 -10.328125 2.6328125 C-9.5949707 2.55949707 -8.86181641 2.48618164 -8.10644531 2.41064453 C-5.15687012 1.83563463 -2.99908453 0 0 0 Z " fill="#AEC3DA" transform="translate(408,453)"/>
<path d="M0 0 C12.21 0 24.42 0 37 0 C37.495 0.99 37.495 0.99 38 2 C36.18818595 2.19401633 34.37551468 2.38004375 32.5625 2.5625 C31.04849609 2.71912109 31.04849609 2.71912109 29.50390625 2.87890625 C28.26447266 2.93884766 28.26447266 2.93884766 27 3 C26.67 2.67 26.34 2.34 26 2 C24.07521187 1.84193469 22.1450079 1.748865 20.21484375 1.68359375 C19.04501953 1.64169922 17.87519531 1.59980469 16.66992188 1.55664062 C14.82237305 1.49766602 14.82237305 1.49766602 12.9375 1.4375 C11.70193359 1.39431641 10.46636719 1.35113281 9.19335938 1.30664062 C6.12902665 1.20015802 3.06460927 1.09814576 0 1 C0 0.67 0 0.34 0 0 Z " fill="#B1BDDF" transform="translate(163,441)"/>
<path d="M0 0 C0.33 0.99 0.66 1.98 1 3 C-0.39949349 5.50973885 -1.82628407 7.82169398 -3.4375 10.1875 C-4.0881543 11.16879883 -4.0881543 11.16879883 -4.75195312 12.16992188 C-5.82545983 13.78608033 -6.9115597 15.39386099 -8 17 C-8.33 16.01 -8.66 15.02 -9 14 C-7.5625 11.3125 -7.5625 11.3125 -6 9 C-8.64 9 -11.28 9 -14 9 C-14 8.67 -14 8.34 -14 8 C-12.4221875 7.9071875 -12.4221875 7.9071875 -10.8125 7.8125 C-6.32495595 6.85613815 -4.92925366 5.43141143 -2 2 C-1.34 1.34 -0.68 0.68 0 0 Z " fill="#639CCD" transform="translate(431,423)"/>
<path d="M0 0 C-1.58093054 1.12837409 -3.16484716 2.25256518 -4.75 3.375 C-5.63171875 4.00148438 -6.5134375 4.62796875 -7.421875 5.2734375 C-13.1884058 9.1352657 -13.1884058 9.1352657 -16.25 8.625 C-16.8275 8.41875 -17.405 8.2125 -18 8 C-13.29333025 3.65538177 -6.64339116 -2.21446372 0 0 Z " fill="#DCD0E7" transform="translate(218,326)"/>
<path d="M0 0 C-3.26545761 1.88391785 -6.28111761 2.49287967 -10 3 C-10 3.66 -10 4.32 -10 5 C-11.41623216 5.05447047 -12.83308191 5.09300508 -14.25 5.125 C-15.03890625 5.14820313 -15.8278125 5.17140625 -16.640625 5.1953125 C-19.20731941 4.9828378 -20.7916067 4.28654105 -23 3 C-7.25512528 -0.44419134 -7.25512528 -0.44419134 0 0 Z " fill="#E57EA2" transform="translate(220,146)"/>
<path d="M0 0 C1.8125 0.1875 1.8125 0.1875 4 1 C4.495 1.845625 4.99 2.69125 5.5 3.5625 C5.995 4.366875 6.49 5.17125 7 6 C8.32 6 9.64 6 11 6 C11.66 7.65 12.32 9.3 13 11 C10.4375 11.5625 10.4375 11.5625 7 11 C4.25076109 8.2836861 2.01170292 5.29728821 0 2 C0 1.34 0 0.68 0 0 Z " fill="#5391C6" transform="translate(347,431)"/>
<path d="M0 0 C2 0 2 0 4.625 2.3125 C7 5 7 5 7 8 C7.66 8 8.32 8 9 8 C9 8.66 9 9.32 9 10 C9.99 10.33 10.98 10.66 12 11 C13.75 12.8125 13.75 12.8125 15 15 C14.578125 17.13671875 14.578125 17.13671875 14 19 C12.2255394 16.77363942 10.45537533 14.54408033 8.6875 12.3125 C7.93823242 11.37374023 7.93823242 11.37374023 7.17382812 10.41601562 C4.52195158 7.06165522 2.09641651 3.74206769 0 0 Z " fill="#DBDAF3" transform="translate(349,352)"/>
<path d="M0 0 C0.66 0.33 1.32 0.66 2 1 C1.360625 1.598125 0.72125 2.19625 0.0625 2.8125 C-2.20310389 4.90810337 -2.20310389 4.90810337 -3 8 C-4.65697379 8.69040574 -6.3255761 9.3530635 -8 10 C-9.70294787 11.28667172 -11.37946188 12.61096733 -13 14 C-13.66 13.67 -14.32 13.34 -15 13 C-12.87754286 11.01804354 -10.75219732 9.03935743 -8.625 7.0625 C-8.02171875 6.49853516 -7.4184375 5.93457031 -6.796875 5.35351562 C-6.21679688 4.81533203 -5.63671875 4.27714844 -5.0390625 3.72265625 C-4.50490723 3.22515869 -3.97075195 2.72766113 -3.42041016 2.21508789 C-2 1 -2 1 0 0 Z " fill="#E1C6DB" transform="translate(314,256)"/>
<path d="M0 0 C2.64 0 5.28 0 8 0 C7.625 1.9375 7.625 1.9375 7 4 C4.37684968 5.31157516 2.76966564 4.89649988 -0.125 4.5625 C-1.03507813 4.46066406 -1.94515625 4.35882813 -2.8828125 4.25390625 C-3.58148438 4.17011719 -4.28015625 4.08632812 -5 4 C-5 3.34 -5 2.68 -5 2 C-3.35 2 -1.7 2 0 2 C0 1.34 0 0.68 0 0 Z " fill="#F6E0DD" transform="translate(179,153)"/>
<path d="M0 0 C0.33 0 0.66 0 1 0 C1.04898438 1.18335938 1.09796875 2.36671875 1.1484375 3.5859375 C1.52942265 11.90777938 2.0334298 19.87150984 4 28 C3.34 28 2.68 28 2 28 C-1.34805625 18.88508767 -1.45213457 9.51954888 0 0 Z " fill="#C7B5CF" transform="translate(140,286)"/>
<path d="M0 0 C0.99 0 1.98 0 3 0 C3.33 0.66 3.66 1.32 4 2 C6.32156597 2.40729228 8.6568787 2.74438677 11 3 C10.34 4.98 9.68 6.96 9 9 C8.01 8.34 7.02 7.68 6 7 C6 6.34 6 5.68 6 5 C4.02 5 2.04 5 0 5 C0 3.35 0 1.7 0 0 Z " fill="#F4E6DF" transform="translate(160,150)"/>
<path d="M0 0 C-1.49161127 3.58792981 -3.53032868 5.64312838 -6.4375 8.1875 C-7.61119141 9.22970703 -7.61119141 9.22970703 -8.80859375 10.29296875 C-11 12 -11 12 -14 13 C-13.34 11.35 -12.68 9.7 -12 8 C-11.34 8 -10.68 8 -10 8 C-9.67 7.01 -9.34 6.02 -9 5 C-7.44140625 3.61328125 -7.44140625 3.61328125 -5.5625 2.3125 C-4.63630859 1.65701172 -4.63630859 1.65701172 -3.69140625 0.98828125 C-2 0 -2 0 0 0 Z " fill="#D2ABCC" transform="translate(162,255)"/>
<path d="M0 0 C0.33 0.99 0.66 1.98 1 3 C0.35933594 2.89300781 -0.28132812 2.78601563 -0.94140625 2.67578125 C-7.02112734 1.83313734 -10.59186252 2.06079485 -16 5 C-15.04239706 2.38835563 -14.30921331 1.1967721 -11.9375 -0.3125 C-7.81770963 -1.27670626 -4.13975006 -0.66741069 0 0 Z M-17 5 C-16.67 5.99 -16.34 6.98 -16 8 C-16.99 8 -17.98 8 -19 8 C-18.34 7.01 -17.68 6.02 -17 5 Z " fill="#D6AAD3" transform="translate(179,260)"/>
<path d="M0 0 C2.64 0 5.28 0 8 0 C8.12375 1.175625 8.12375 1.175625 8.25 2.375 C8.72806339 5.14749104 8.72806339 5.14749104 11.0625 6.3125 C11.701875 6.539375 12.34125 6.76625 13 7 C11.25 7.75 11.25 7.75 9 8 C7.62298702 6.71182656 6.29355827 5.37195574 5 4 C2.36777038 2.74563813 2.36777038 2.74563813 0 2 C0 1.34 0 0.68 0 0 Z " fill="#D1ACC3" transform="translate(205,236)"/>
<path d="M0 0 C6.875 3.75 6.875 3.75 8 6 C6.02 5.34 4.04 4.68 2 4 C2 4.66 2 5.32 2 6 C2.66 6.33 3.32 6.66 4 7 C2.68 7 1.36 7 0 7 C0 6.34 0 5.68 0 5 C-2.97 4.505 -2.97 4.505 -6 4 C-6.33 3.01 -6.66 2.02 -7 1 C-4.03 1.495 -4.03 1.495 -1 2 C-0.67 1.34 -0.34 0.68 0 0 Z " fill="#C7BCD2" transform="translate(166,330)"/>
<path d="M0 0 C0.99 0 1.98 0 3 0 C2.67 3.63 2.34 7.26 2 11 C1.34 11 0.68 11 0 11 C0 10.34 0 9.68 0 9 C-0.99 9 -1.98 9 -3 9 C-2.44271087 5.65626525 -1.64826111 2.96687001 0 0 Z " fill="#F46C95" transform="translate(256,120)"/>
<path d="M0 0 C0.99 0.66 1.98 1.32 3 2 C2.34 2 1.68 2 1 2 C1 2.66 1 3.32 1 4 C-2.6441774 6.4294516 -4.71241272 6.16179575 -9 6 C-9.33 5.34 -9.66 4.68 -10 4 C-9.01 4 -8.02 4 -7 4 C-7 3.34 -7 2.68 -7 2 C-3.6875 0.875 -3.6875 0.875 0 0 Z " fill="#3795D4" transform="translate(399,450)"/>
<path d="M0 0 C0.99 0 1.98 0 3 0 C3.33 3.3 3.66 6.6 4 10 C2.02 11.32 0.04 12.64 -2 14 C-1.125 9.125 -1.125 9.125 0 8 C0.07148199 6.64756083 0.08399454 5.29165633 0.0625 3.9375 C0.041875 2.638125 0.02125 1.33875 0 0 Z " fill="#DBB7DC" transform="translate(178,263)"/>
<path d="M0 0 C-1.25 1.5625 -1.25 1.5625 -3 3 C-4.33480163 2.67259583 -5.66771814 2.3375114 -7 2 C-9.4157906 1.93168013 -11.83334713 1.91512358 -14.25 1.9375 C-16.14492187 1.95103516 -16.14492187 1.95103516 -18.078125 1.96484375 C-19.04234375 1.97644531 -20.0065625 1.98804688 -21 2 C-16.14759635 -2.85240365 -6.21302433 -1.60336112 0 0 Z " fill="#D6AECF" transform="translate(186,252)"/>
<path d="M0 0 C1.32 0 2.64 0 4 0 C3.67 0.99 3.34 1.98 3 3 C-2.36301015 5.44628533 -7.15231932 6.47788565 -13 7 C-12.67 6.01 -12.34 5.02 -12 4 C-6.555 3.505 -6.555 3.505 -1 3 C-0.67 2.01 -0.34 1.02 0 0 Z " fill="#F7CED6" transform="translate(223,140)"/>
<path d="M0 0 C7.59 0 15.18 0 23 0 C23 0.33 23 0.66 23 1 C19.1203133 2.49896986 16.96009455 3.20002865 13 2 C9.15346072 1.8626236 5.68601601 1.82047488 2 3 C1.34 2.01 0.68 1.02 0 0 Z " fill="#E2D8F3" transform="translate(163,442)"/>
<path d="M0 0 C2.97 0 5.94 0 9 0 C8.01 0.33 7.02 0.66 6 1 C6 1.66 6 2.32 6 3 C-0.20514474 5.13619737 -5.42684522 6.36517527 -12 6 C-12 5.67 -12 5.34 -12 5 C-8.04 4.34 -4.08 3.68 0 3 C0 2.01 0 1.02 0 0 Z " fill="#C2BDDB" transform="translate(218,342)"/>
<path d="M0 0 C1.16144531 0.00902344 2.32289063 0.01804687 3.51953125 0.02734375 C4.39996094 0.03894531 5.28039062 0.05054688 6.1875 0.0625 C3.51718716 2.73983998 2.15028559 3.06530229 -1.703125 3.35546875 C-3.15654009 3.33564945 -4.60981167 3.30004845 -6.0625 3.25 C-6.80757812 3.23646484 -7.55265625 3.22292969 -8.3203125 3.20898438 C-10.15135416 3.17377204 -11.98202169 3.11996851 -13.8125 3.0625 C-10.0411108 -0.7088892 -5.08014504 -0.0513146 0 0 Z " fill="#D7CDE7" transform="translate(193.8125,334.9375)"/>
<path d="M0 0 C-0.99 0 -1.98 0 -3 0 C-3.33 0.66 -3.66 1.32 -4 2 C-4.825 2.309375 -5.65 2.61875 -6.5 2.9375 C-7.325 3.288125 -8.15 3.63875 -9 4 C-9.33 4.99 -9.66 5.98 -10 7 C-12.64 7 -15.28 7 -18 7 C-13.24181953 2.70228861 -6.58441983 -2.31425187 0 0 Z " fill="#E8CAE0" transform="translate(340,245)"/>
<path d="M0 0 C2.46800047 1.15173355 4.04783565 2.04783565 6 4 C6.22705078 5.97119141 6.22705078 5.97119141 6.1953125 8.3515625 C6.18886719 9.20234375 6.18242187 10.053125 6.17578125 10.9296875 C6.15902344 11.81914062 6.14226562 12.70859375 6.125 13.625 C6.11597656 14.5221875 6.10695312 15.419375 6.09765625 16.34375 C6.0740497 18.56276586 6.0411231 20.78125077 6 23 C5.67 23 5.34 23 5 23 C4.67 18.05 4.34 13.1 4 8 C3.67 8 3.34 8 3 8 C3 6.35 3 4.7 3 3 C2.01 3 1.02 3 0 3 C0 2.01 0 1.02 0 0 Z " fill="#E5BCC8" transform="translate(187,153)"/>
<path d="M0 0 C0 3.11227195 -0.45627049 5.94152152 -1 9 C-1.61875 9.103125 -2.2375 9.20625 -2.875 9.3125 C-5.36526484 9.87525373 -5.36526484 9.87525373 -7 13 C-7.33 12.34 -7.66 11.68 -8 11 C-8.99 11 -9.98 11 -11 11 C-10.54109375 10.62488281 -10.0821875 10.24976563 -9.609375 9.86328125 C-5.96703891 6.82545052 -2.82808093 3.84619007 0 0 Z " fill="#E985A1" transform="translate(255,121)"/>
<path d="M0 0 C3.75 0.1875 3.75 0.1875 7 1 C6.34 2.32 5.68 3.64 5 5 C2.03 5 -0.94 5 -4 5 C-2.4375 2.4375 -2.4375 2.4375 0 0 Z " fill="#CECEDE" transform="translate(247,446)"/>
<path d="M0 0 C3 1 3 1 4.1328125 2.7421875 C4.46023438 3.44601562 4.78765625 4.14984375 5.125 4.875 C5.45757812 5.57367188 5.79015625 6.27234375 6.1328125 6.9921875 C7 9 7 9 8 12 C8.66 12 9.32 12 10 12 C10.33 13.65 10.66 15.3 11 17 C5.8288885 12.45568989 2.55336892 6.84718632 -1 1 C-0.67 0.67 -0.34 0.34 0 0 Z " fill="#8893C8" transform="translate(290,351)"/>
<path d="M0 0 C2.5 1.25 2.5 1.25 5 3 C5 4.32 5 5.64 5 7 C5.61875 7.12375 6.2375 7.2475 6.875 7.375 C9 8 9 8 11 10 C7.19207747 10.55998861 5.9799822 9.9867807 2.6875 7.8125 C0 5 0 5 -0.375 2.1875 C-0.25125 1.465625 -0.1275 0.74375 0 0 Z " fill="#D2A3C0" transform="translate(194,226)"/>
<path d="M0 0 C2.31 0.33 4.62 0.66 7 1 C7 1.66 7 2.32 7 3 C9.97 3 12.94 3 16 3 C15.67 3.66 15.34 4.32 15 5 C8.63544353 5.50916452 4.94875005 5.18740389 0 1 C0 0.67 0 0.34 0 0 Z " fill="#B7CDED" transform="translate(409,426)"/>
<path d="M0 0 C4.66132863 3.57729872 7.73911534 7.10867301 11 12 C10.67 12.66 10.34 13.32 10 14 C9.01 13.34 8.02 12.68 7 12 C7 11.34 7 10.68 7 10 C6.01 10 5.02 10 4 10 C3.566875 8.63875 3.566875 8.63875 3.125 7.25 C2.23468224 4.67797092 1.28505587 2.38653234 0 0 Z " fill="#B7ABD3" transform="translate(321,318)"/>
<path d="M0 0 C0.33 0 0.66 0 1 0 C1.1083667 2.7302389 1.18746694 5.45614543 1.25 8.1875 C1.28351563 8.95642578 1.31703125 9.72535156 1.3515625 10.51757812 C1.42243849 14.64610431 1.32932056 16.50155164 -1.015625 20.05078125 C-1.67046875 20.69402344 -2.3253125 21.33726562 -3 22 C-3.125 19.125 -3.125 19.125 -3 16 C-2.34 15.34 -1.68 14.68 -1 14 C-0.69940057 11.63490639 -0.50484988 9.25558119 -0.375 6.875 C-0.30023438 5.59367187 -0.22546875 4.31234375 -0.1484375 2.9921875 C-0.09945313 2.00476563 -0.05046875 1.01734375 0 0 Z " fill="#C3A8D0" transform="translate(259,282)"/>
<path d="M0 0 C0.66 0.33 1.32 0.66 2 1 C3.59703834 7.01960607 2.54157986 10.54030993 0 16 C-0.66 16.33 -1.32 16.66 -2 17 C-2 15.02 -2 13.04 -2 11 C-1.34 11 -0.68 11 0 11 C0 7.37 0 3.74 0 0 Z " fill="#E5CADF" transform="translate(304,245)"/>
<path d="M0 0 C0.66 0.33 1.32 0.66 2 1 C1.38125 1.680625 0.7625 2.36125 0.125 3.0625 C-2.3319068 6.45881234 -3.04945605 8.96018821 -4 13 C-6 10 -6 10 -5.9375 7.0625 C-4.78580061 3.30028198 -3.21991837 2.14661225 0 0 Z " fill="#D9CAE2" transform="translate(268,304)"/>
<path d="M0 0 C-1.1875 2 -1.1875 2 -3 4 C-5.6875 4.25 -5.6875 4.25 -8 4 C-8 2.68 -8 1.36 -8 0 C-4.94736336 -0.98120464 -3.05263664 -0.98120464 0 0 Z " fill="#D0CDE1" transform="translate(416,452)"/>
<path d="M0 0 C2.97 0.33 5.94 0.66 9 1 C9 1.33 9 1.66 9 2 C8.40832031 2.12117188 7.81664062 2.24234375 7.20703125 2.3671875 C2.96196415 3.26744643 -1.02439661 4.20456621 -5 6 C-4.67 4.68 -4.34 3.36 -4 2 C-2.68 2 -1.36 2 0 2 C0 1.34 0 0.68 0 0 Z " fill="#D9D0E5" transform="translate(242,331)"/>
<path d="M0 0 C8.57142857 -0.28571429 8.57142857 -0.28571429 12 2 C12 2.33 12 2.66 12 3 C8.04 3 4.08 3 0 3 C0 2.01 0 1.02 0 0 Z " fill="#ACA6D2" transform="translate(244,333)"/>
<path d="M0 0 C-1.5 1.5625 -1.5 1.5625 -4 3 C-6.77437543 2.96823234 -9.25286467 2.50364148 -12 2 C-12 1.34 -12 0.68 -12 0 C-10.56359829 -0.19573608 -9.12580496 -0.38127816 -7.6875 -0.5625 C-6.88699219 -0.66691406 -6.08648437 -0.77132813 -5.26171875 -0.87890625 C-3 -1 -3 -1 0 0 Z " fill="#D4C2D5" transform="translate(204,447)"/>
<path d="M0 0 C3.15330554 0.60694155 5.18888867 1.6416665 7.75 3.5625 C8.67039062 4.24505859 8.67039062 4.24505859 9.609375 4.94140625 C10.29773438 5.46541016 10.29773438 5.46541016 11 6 C7.86650268 7.04449911 7.01031744 6.93423645 4 6 C4 5.34 4 4.68 4 4 C3.34 4 2.68 4 2 4 C2 3.34 2 2.68 2 2 C1.34 2 0.68 2 0 2 C0 1.34 0 0.68 0 0 Z " fill="#6598CC" transform="translate(404,424)"/>
<path d="M0 0 C0 3 0 3 -1.35546875 4.53515625 C-4.75531914 7.3695731 -7.68736476 9.69314084 -12 11 C-10.78821999 7.36465996 -9.73911373 6.92478955 -6.5625 4.9375 C-4.10191119 3.38531476 -2.06116538 2.06116538 0 0 Z " fill="#D6C8DF" transform="translate(203,312)"/>
<path d="M0 0 C0.66 0.33 1.32 0.66 2 1 C0.62673398 5.11979807 -2.08595092 8.04297546 -6 10 C-4.6302836 6.00499382 -2.74277578 3.19990508 0 0 Z " fill="#AD9CCB" transform="translate(231,310)"/>
<path d="M0 0 C2.31 0 4.62 0 7 0 C6 2 6 2 3 4 C2.27617533 6.05925139 2.27617533 6.05925139 2 8 C-0.1519437 4.77208445 -0.20086443 3.71599191 0 0 Z " fill="#C9BED4" transform="translate(162,323)"/>
<path d="M0 0 C3.28788824 3.11016455 5.83735988 6.01618925 8 10 C5 10 5 10 2.875 8.375 C0.65085217 5.55774608 0.32104541 3.53149946 0 0 Z " fill="#C2ABD3" transform="translate(304,296)"/>
<path d="M0 0 C0.99 0 1.98 0 3 0 C1.4169423 4.2742558 -1.50568404 6.26531794 -5 9 C-4.42636089 5.12793601 -2.65894107 2.81534937 0 0 Z " fill="#CAA6C3" transform="translate(303,261)"/>
<path d="M0 0 C1.98 0 3.96 0 6 0 C6 3.10551666 5.4606285 4.35261084 4 7 C0 2.25 0 2.25 0 0 Z " fill="#DF779B" transform="translate(188,150)"/>
<path d="M0 0 C4.875 4.625 4.875 4.625 6 8 C4.68 8.33 3.36 8.66 2 9 C0 2.25 0 2.25 0 0 Z " fill="#95A3D2" transform="translate(360,367)"/>
<path d="M0 0 C0.66 0 1.32 0 2 0 C3.5078125 1.6796875 3.5078125 1.6796875 5.125 3.875 C5.66382813 4.59429687 6.20265625 5.31359375 6.7578125 6.0546875 C8 8 8 8 8 10 C6 10 6 10 4 8.125 C3.34 7.42375 2.68 6.7225 2 6 C1.34 5.34 0.68 4.68 0 4 C0 2.68 0 1.36 0 0 Z " fill="#C5B8CF" transform="translate(144,315)"/>
<path d="M0 0 C0.65234375 1.734375 0.65234375 1.734375 1 4 C0.00390625 6.140625 0.00390625 6.140625 -1.4375 8.25 C-1.91058594 8.95640625 -2.38367188 9.6628125 -2.87109375 10.390625 C-3.24363281 10.92171875 -3.61617187 11.4528125 -4 12 C-5 9 -5 9 -4.2578125 6.9921875 C-3.88398438 6.29351562 -3.51015625 5.59484375 -3.125 4.875 C-2.75632813 4.17117188 -2.38765625 3.46734375 -2.0078125 2.7421875 C-1 1 -1 1 0 0 Z " fill="#CEADCE" transform="translate(147,268)"/>
<path d="M0 0 C-0.75 1.9375 -0.75 1.9375 -2 4 C-4.125 4.75 -4.125 4.75 -6 5 C-6.33 4.34 -6.66 3.68 -7 3 C-4.49955934 -0.00052879 -4.2621484 0 0 0 Z " fill="#D2C6D9" transform="translate(191,432)"/>
<path d="M0 0 C5.01113235 1.4317521 6.94469549 3.98445693 10 8 C9.67 8.66 9.34 9.32 9 10 C7.49702124 8.52386015 5.99768715 7.04400843 4.5 5.5625 C3.6646875 4.73878906 2.829375 3.91507812 1.96875 3.06640625 C0 1 0 1 0 0 Z " fill="#C3D4F0" transform="translate(399,416)"/>
<path d="M0 0 C0.66 1.32 1.32 2.64 2 4 C1.01 4.66 0.02 5.32 -1 6 C-1.72382467 8.05925139 -1.72382467 8.05925139 -2 10 C-2.99 10 -3.98 10 -5 10 C-3.66511872 6.40608886 -2.03977277 3.24509304 0 0 Z " fill="#D9C7E3" transform="translate(258,301)"/>
<path d="M0 0 C0.2475 0.61875 0.495 1.2375 0.75 1.875 C2.20628639 4.35068687 3.37812506 4.95125002 6 6 C5.67 6.99 5.34 7.98 5 9 C-0.875 5.375 -0.875 5.375 -2 2 C-1.34 1.34 -0.68 0.68 0 0 Z " fill="#C991BC" transform="translate(215,236)"/>
<path d="M0 0 C1 3 1 3 0.22265625 4.82421875 C-0.8515625 6.54947917 -1.92578125 8.27473958 -3 10 C-3.33 9.01 -3.66 8.02 -4 7 C-4.66 6.67 -5.32 6.34 -6 6 C-4 4 -2 2 0 0 Z " fill="#85A6CB" transform="translate(431,423)"/>
<path d="M0 0 C0.66 0.33 1.32 0.66 2 1 C2 1.66 2 2.32 2 3 C2.639375 3.2475 3.27875 3.495 3.9375 3.75 C6 5 6 5 6.75 7.125 C6.8325 7.74375 6.915 8.3625 7 9 C5.68 8.34 4.36 7.68 3 7 C3 6.01 3 5.02 3 4 C1.68 3.67 0.36 3.34 -1 3 C-0.67 2.01 -0.34 1.02 0 0 Z " fill="#BAB7D1" transform="translate(281,343)"/>
<path d="M0 0 C0.66 0.33 1.32 0.66 2 1 C-0.64 2.98 -3.28 4.96 -6 7 C-6.66 6.34 -7.32 5.68 -8 5 C-6.71475739 4.13619741 -5.42157581 3.28419631 -4.125 2.4375 C-3.04605469 1.72400391 -3.04605469 1.72400391 -1.9453125 0.99609375 C-1.30335938 0.66738281 -0.66140625 0.33867187 0 0 Z " fill="#ABA2D0" transform="translate(242,334)"/>
<path d="M0 0 C0.33 0.66 0.66 1.32 1 2 C0.34 2 -0.32 2 -1 2 C-1.4021875 3.2065625 -1.4021875 3.2065625 -1.8125 4.4375 C-2.204375 5.283125 -2.59625 6.12875 -3 7 C-3.99 7.33 -4.98 7.66 -6 8 C-6 5 -6 5 -4.6875 3.61328125 C-3.125 2.40885417 -1.5625 1.20442708 0 0 Z " fill="#A99FC8" transform="translate(223,321)"/>
<path d="M0 0 C0.33 0.99 0.66 1.98 1 3 C-0.65 4.65 -2.3 6.3 -4 8 C-4.625 6.125 -4.625 6.125 -5 4 C-4.34 3.34 -3.68 2.68 -3 2 C-2.01 2 -1.02 2 0 2 C0 1.34 0 0.68 0 0 Z " fill="#BCAAD0" transform="translate(234,304)"/>
<path d="M0 0 C0.99 0.66 1.98 1.32 3 2 C2.67 3.65 2.34 5.3 2 7 C0.35 7 -1.3 7 -3 7 C-2.67 6.34 -2.34 5.68 -2 5 C-1.34 5 -0.68 5 0 5 C0 3.35 0 1.7 0 0 Z " fill="#5096D2" transform="translate(259,433)"/>
<path d="M0 0 C4.875 4.625 4.875 4.625 6 8 C4.35 7.67 2.7 7.34 1 7 C0.67 4.69 0.34 2.38 0 0 Z " fill="#A4B8D9" transform="translate(339,422)"/>
<path d="M0 0 C5.75 2.625 5.75 2.625 8 6 C6.35 6.33 4.7 6.66 3 7 C3 5.68 3 4.36 3 3 C2.01 2.67 1.02 2.34 0 2 C0 1.34 0 0.68 0 0 Z " fill="#9FB4D3" transform="translate(357,444)"/>
<path d="M0 0 C4.875 4.75 4.875 4.75 6 7 C4.68 7.33 3.36 7.66 2 8 C1.33333333 5.33333333 0.66666667 2.66666667 0 0 Z " fill="#87A6D5" transform="translate(377,389)"/>
<path d="M0 0 C1.485 0.99 1.485 0.99 3 2 C3 2.66 3 3.32 3 4 C3.66 4 4.32 4 5 4 C5.66 5.65 6.32 7.3 7 9 C4.37098712 7.47793991 2.15634036 6.15634036 0 4 C0 2.68 0 1.36 0 0 Z " fill="#97A8D3" transform="translate(366,375)"/>
<path d="M0 0 C0.66 0.33 1.32 0.66 2 1 C1.01 2.485 1.01 2.485 0 4 C-1.9453125 4.29296875 -1.9453125 4.29296875 -4.125 4.1875 C-5.40375 4.125625 -6.6825 4.06375 -8 4 C-5.31143836 2.20762558 -3.0466145 1.01553817 0 0 Z " fill="#A09ECE" transform="translate(232,340)"/>
<path d="M0 0 C0.66 0.33 1.32 0.66 2 1 C-0.475 4.465 -0.475 4.465 -3 8 C-3.66 6.68 -4.32 5.36 -5 4 C-4.34 4 -3.68 4 -3 4 C-2.67 3.01 -2.34 2.02 -2 1 C-1.34 0.67 -0.68 0.34 0 0 Z " fill="#E8D3E6" transform="translate(283,284)"/>
<path d="M0 0 C0.66 0 1.32 0 2 0 C1.45276317 3.37462715 0.9451 5.08235 -1 8 C-1.99 6.68 -2.98 5.36 -4 4 C-2.68 3.67 -1.36 3.34 0 3 C0 2.01 0 1.02 0 0 Z " fill="#CFD2E6" transform="translate(433,416)"/>
<path d="M0 0 C1.485 0.99 1.485 0.99 3 2 C3.1875 5.625 3.1875 5.625 3 9 C2.01 9.495 2.01 9.495 1 10 C-0.1577506 6.52674819 -0.06866652 3.63932552 0 0 Z " fill="#C2BAD1" transform="translate(288,352)"/>
<path d="M0 0 C0.66 0 1.32 0 2 0 C2.103125 0.763125 2.20625 1.52625 2.3125 2.3125 C3.04364039 5.17059424 3.76951913 6.15742885 6 8 C3 8 3 8 1.3125 6.8125 C-0.40364695 4.44258278 -0.23187108 2.85974334 0 0 Z " fill="#9597CC" transform="translate(282,339)"/>
<path d="M0 0 C0.99 0 1.98 0 3 0 C1.8141763 3.37503669 0.72426311 5.64722731 -2 8 C-1.47731534 5.23723823 -0.89130413 2.6739124 0 0 Z " fill="#B29ECD" transform="translate(253,304)"/>
<path d="M0 0 C0.99 0.495 0.99 0.495 2 1 C2 1.66 2 2.32 2 3 C2.66 3 3.32 3 4 3 C4 4.98 4 6.96 4 9 C3.01 8.34 2.02 7.68 1 7 C0.3125 3.375 0.3125 3.375 0 0 Z " fill="#C59FC3" transform="translate(232,261)"/>
<path d="M0 0 C0.66 0.33 1.32 0.66 2 1 C0.68 2.32 -0.64 3.64 -2 5 C-1.125 1.125 -1.125 1.125 0 0 Z M-3 5 C-2.67 6.32 -2.34 7.64 -2 9 C-2.99 9 -3.98 9 -5 9 C-4.34 7.68 -3.68 6.36 -3 5 Z " fill="#DCB4DC" transform="translate(165,263)"/>
<path d="M0 0 C-4.625 4.875 -4.625 4.875 -8 6 C-6.53781513 1.3697479 -6.53781513 1.3697479 -4 -0.375 C-2 -1 -2 -1 0 0 Z " fill="#CCA2CA" transform="translate(156,262)"/>
<path d="M0 0 C2.4375 0.8125 2.4375 0.8125 5 2 C5.33 2.99 5.66 3.98 6 5 C6.66 5.33 7.32 5.66 8 6 C7.67 6.99 7.34 7.98 7 9 C4.61327331 6.03716687 2.2646629 3.05729491 0 0 Z " fill="#D1AFC7" transform="translate(218,244)"/>
<path d="M0 0 C2.31 0.33 4.62 0.66 7 1 C6.67 1.66 6.34 2.32 6 3 C3.36 3 0.72 3 -2 3 C-1.34 2.01 -0.68 1.02 0 0 Z " fill="#D9C8DC" transform="translate(247,446)"/>
<path d="M0 0 C3.3 0 6.6 0 10 0 C10 0.33 10 0.66 10 1 C3.71428571 3.42857143 3.71428571 3.42857143 0 2 C0 1.34 0 0.68 0 0 Z " fill="#DECEE9" transform="translate(176,442)"/>
<path d="M0 0 C0.66 0 1.32 0 2 0 C2.66 1.65 3.32 3.3 4 5 C2.35 5 0.7 5 -1 5 C-0.67 3.35 -0.34 1.7 0 0 Z " fill="#3D8ED1" transform="translate(356,437)"/>
<path d="M0 0 C0.99 0 1.98 0 3 0 C3.33 1.65 3.66 3.3 4 5 C3.01 5.33 2.02 5.66 1 6 C0.67 4.02 0.34 2.04 0 0 Z " fill="#5292CD" transform="translate(329,402)"/>
<path d="M0 0 C1.32 0.33 2.64 0.66 4 1 C4 1.66 4 2.32 4 3 C4.66 3 5.32 3 6 3 C5.67 4.32 5.34 5.64 5 7 C0 1.125 0 1.125 0 0 Z " fill="#D3D8F4" transform="translate(374,384)"/>
<path d="M0 0 C-0.66 1.65 -1.32 3.3 -2 5 C-2.66 5 -3.32 5 -4 5 C-4.66 3.35 -5.32 1.7 -6 0 C-2.25 -1.125 -2.25 -1.125 0 0 Z " fill="#7590C8" transform="translate(314,377)"/>
<path d="M0 0 C1.65 0 3.3 0 5 0 C4.67 1.98 4.34 3.96 4 6 C3.34 5.67 2.68 5.34 2 5 C2 4.34 2 3.68 2 3 C1.34 3 0.68 3 0 3 C0 2.01 0 1.02 0 0 Z " fill="#AB9BC7" transform="translate(144,312)"/>
<path d="M0 0 C0.66 0.99 1.32 1.98 2 3 C0.35 4.65 -1.3 6.3 -3 8 C-3 3.73173127 -2.62386487 3.06117568 0 0 Z " fill="#D0B7CE" transform="translate(297,268)"/>
<path d="M0 0 C5.625 -0.25 5.625 -0.25 9 2 C9 2.66 9 3.32 9 4 C5.17902761 3.46930939 2.93828597 2.50298434 0 0 Z " fill="#CE8EB7" transform="translate(199,232)"/>
<path d="M0 0 C1.9375 0.6875 1.9375 0.6875 4 2 C4.75 4.625 4.75 4.625 5 7 C4.01 7.495 4.01 7.495 3 8 C3 6.35 3 4.7 3 3 C2.01 3 1.02 3 0 3 C0 2.01 0 1.02 0 0 Z " fill="#F3C7D1" transform="translate(187,153)"/>
<path d="M0 0 C0.66 0 1.32 0 2 0 C2 0.99 2 1.98 2 3 C2.66 3 3.32 3 4 3 C3.67 4.32 3.34 5.64 3 7 C2.01 6.67 1.02 6.34 0 6 C0 4.02 0 2.04 0 0 Z " fill="#C4BFCB" transform="translate(320,400)"/>
<path d="M0 0 C0.66 0 1.32 0 2 0 C2 0.66 2 1.32 2 2 C2.99 2 3.98 2 5 2 C5.33 2.99 5.66 3.98 6 5 C5.34 5.66 4.68 6.32 4 7 C0 2.25 0 2.25 0 0 Z " fill="#DCD9EF" transform="translate(344,345)"/>
<path d="M0 0 C6.875 3.75 6.875 3.75 8 6 C4.22454612 4.90931332 1.52956528 4.0916909 -1 1 C-0.67 0.67 -0.34 0.34 0 0 Z " fill="#CEC2D9" transform="translate(166,330)"/>
<path d="M0 0 C0.33 0.66 0.66 1.32 1 2 C-1.3125 4.5 -1.3125 4.5 -4 7 C-4.99 7 -5.98 7 -7 7 C-4.69 4.69 -2.38 2.38 0 0 Z " fill="#CCC1D7" transform="translate(249,315)"/>
<path d="M0 0 C1.98 0 3.96 0 6 0 C6 0.66 6 1.32 6 2 C4.02 2.99 2.04 3.98 0 5 C0 3.35 0 1.7 0 0 Z " fill="#A599C8" transform="translate(160,320)"/>
<path d="M0 0 C0 0.66 0 1.32 0 2 C-0.66 2 -1.32 2 -2 2 C-2.33 2.99 -2.66 3.98 -3 5 C-4.65 5 -6.3 5 -8 5 C-6.68 4.34 -5.36 3.68 -4 3 C-4 2.34 -4 1.68 -4 1 C-2 0 -2 0 0 0 Z " fill="#E27D9A" transform="translate(238,137)"/>
</svg>
